<?xml version="1.0" encoding="UTF-8"?>
<svg version="1.1" xmlns="http://www.w3.org/2000/svg" width="1024" height="1024">
<path d="M0 0 C7.70395296 -0.25400875 15.40682374 -0.42885392 23.11401367 -0.54931641 C25.73421576 -0.59953978 28.3541385 -0.66773478 30.97338867 -0.75439453 C34.74467831 -0.87602596 38.51226019 -0.93247506 42.28515625 -0.9765625 C43.45208511 -1.02817535 44.61901398 -1.07978821 45.82130432 -1.13296509 C53.8049146 -1.13844395 53.8049146 -1.13844395 57.26039124 2.15325928 C59.06604587 4.69889656 60.5666015 7.23056806 62 10 C62.78306634 11.32570061 63.56974263 12.64929123 64.36328125 13.96875 C65.01829618 15.14290593 65.66821875 16.31992018 66.3125 17.5 C68.74823674 22.0363537 68.74823674 22.0363537 72 26 C72.9251411 27.60500554 73.81155062 29.23248633 74.67578125 30.87109375 C77.99686278 37.05034262 81.55022999 43.06508039 85.1875 49.0625 C85.80302734 50.09310547 86.41855469 51.12371094 87.05273438 52.18554688 C87.64763672 53.16716797 88.24253906 54.14878906 88.85546875 55.16015625 C89.38809326 56.04324463 89.92071777 56.92633301 90.46948242 57.83618164 C91.97947125 60.24557436 91.97947125 60.24557436 95 62 C95.3309668 61.53851563 95.66193359 61.07703125 96.00292969 60.6015625 C102.38374342 51.71321632 108.80705845 42.863877 115.39624023 34.12866211 C119.98892972 28.03499511 124.51129886 21.8906344 129.01733398 15.73266602 C130.08552093 14.27701953 131.16407496 12.82889579 132.25520325 11.3903656 C134.01655952 9.04680459 134.01655952 9.04680459 135.44732666 6.62536621 C137.72112224 3.14234741 139.46972357 0.47161464 143.55363464 -0.78700256 C146.61442538 -1.04079124 149.55278135 -1.01367679 152.62109375 -0.87890625 C154.27094017 -0.85980446 154.27094017 -0.85980446 155.95411682 -0.84031677 C159.45086596 -0.79012286 162.94233298 -0.67724944 166.4375 -0.5625 C168.81437791 -0.5173356 171.19133758 -0.47627446 173.56835938 -0.43945312 C179.38069395 -0.34047848 185.18996969 -0.19008689 191 0 C191.33 0.66 191.66 1.32 192 2 C185.73535092 10.98794155 179.40864876 19.87525957 172.67578125 28.51953125 C168.86438036 33.44132892 165.20824043 38.47862419 161.52612305 43.49731445 C157.20328011 49.38300902 152.83145608 55.2297598 148.4375 61.0625 C143.04370601 68.22795269 137.74112415 75.45193245 132.51831055 82.74291992 C130.12709915 86.07652126 127.72170497 89.39163886 125.2265625 92.6484375 C124.80487793 93.19951172 124.38319336 93.75058594 123.94873047 94.31835938 C122.84165654 95.75597716 121.72589856 97.18689637 120.609375 98.6171875 C119.10822555 100.83976314 118.41456514 102.37848516 118 105 C118.66 105.33 119.32 105.66 120 106 C121.2477458 108.04366998 122.41704557 110.08754674 123.5625 112.1875 C126.58671344 117.60069769 129.77008389 122.85764433 133.15722656 128.0546875 C136.94923865 133.88660601 140.63261827 139.78432746 144.3125 145.6875 C149.32455309 153.72345653 154.35660688 161.74582655 159.4230957 169.74755859 C164.29214513 177.44535625 169.11237674 185.17355959 173.92578125 192.90625 C174.52777344 193.87175781 175.12976563 194.83726562 175.75 195.83203125 C176.31203125 196.73646973 176.8740625 197.6409082 177.453125 198.57275391 C178.74685167 200.60277767 180.09669444 202.55754367 181.5 204.51171875 C181.995 205.33285156 182.49 206.15398437 183 207 C182.67 207.99 182.34 208.98 182 210 C170.43643971 210.08000334 170.43643971 210.08000334 164.74926758 210.03515625 C163.35628324 210.02464734 161.9632982 210.01423192 160.5703125 210.00390625 C159.51111855 209.99558273 159.51111855 209.99558273 158.43052673 209.98709106 C154.23081407 209.96749894 150.05351555 210.06000588 145.85838318 210.25218201 C126.27755346 211.11422168 126.27755346 211.11422168 121.11669922 207.78515625 C117.93366825 204.29945463 116.60028293 200.02199075 115.06494141 195.6328125 C112.95532363 190.41728794 109.77863811 185.76214157 106.8125 181 C105.51932035 178.8657705 104.23030291 176.72901387 102.9453125 174.58984375 C102.29723633 173.51202637 101.64916016 172.43420898 100.98144531 171.32373047 C97.05297123 164.73400078 93.21584935 158.09025593 89.3918457 151.43945312 C88.84359131 150.49134766 88.29533691 149.54324219 87.73046875 148.56640625 C87.24989014 147.73052979 86.76931152 146.89465332 86.27416992 146.03344727 C85.03249883 143.88334217 85.03249883 143.88334217 83 142 C75.30247364 152.14053562 67.81586978 162.40129107 60.51757812 172.83251953 C54.15026547 181.92663179 47.76537265 191.00825638 41.2109375 199.96875 C37.61357154 204.90082772 34.0480909 209.85596003 30.47875977 214.80834961 C29.94307373 215.55093018 29.4073877 216.29351074 28.85546875 217.05859375 C28.37746826 217.72173584 27.89946777 218.38487793 27.40698242 219.06811523 C26.94267822 219.70563721 26.47837402 220.34315918 26 221 C25.24444824 222.09308472 25.24444824 222.09308472 24.47363281 223.20825195 C23 225 23 225 20.56640625 225.609375 C17.04347912 225.77429747 13.52615336 225.93537595 10 226 C9.27039063 226.01514648 8.54078125 226.03029297 7.7890625 226.04589844 C-5.49559172 226.275137 -18.73701111 225.71527307 -32 225 C-31.01 224.67 -30.02 224.34 -29 224 C-27.95539939 222.17227174 -27.95539939 222.17227174 -27 220 C-25.96924844 218.47800872 -24.90151215 216.9808642 -23.8125 215.5 C-23.09964844 214.530625 -22.38679687 213.56125 -21.65234375 212.5625 C-17.76147797 207.32403643 -13.838078 202.10977352 -9.91552734 196.89501953 C-5.5486498 191.08435049 -1.23162273 185.23955169 3.0625 179.375 C8.17188515 172.40543667 13.42227528 165.56238306 18.75463867 158.76245117 C23.48770984 152.70720472 28.05722124 146.54311252 32.59179688 140.33837891 C37.78889199 133.24256903 43.11863328 126.25207869 48.49560547 119.29174805 C52.56085672 114.00006462 56.37580381 108.60333125 60 103 C52.31429104 90.15667315 44.61778832 77.32169691 36.79296875 64.5625 C34.76549739 61.25555643 32.74924607 57.94200701 30.73828125 54.625 C23.95790099 43.4451876 17.10821534 32.31347106 10.14941406 21.24365234 C8.98902596 19.39578059 7.8322941 17.54560652 6.6796875 15.69287109 C5.53007596 13.84981654 4.36797355 12.01451071 3.1953125 10.18603516 C2.63585937 9.29577637 2.07640625 8.40551758 1.5 7.48828125 C0.9946875 6.69591064 0.489375 5.90354004 -0.03125 5.0871582 C-1 3 -1 3 0 0 Z " fill="#298A49" transform="translate(728,399)"/>
<path d="M0 0 C16.17 0 32.34 0 49 0 C50.835625 4.99125 52.67125 9.9825 54.5625 15.125 C61.20107432 33.15625081 67.87797098 51.17324875 74.5625 69.1875 C74.81250259 69.86124035 75.06250519 70.5349807 75.32008362 71.22913742 C81.31443871 87.38308237 87.31226704 103.53573743 93.3125 119.6875 C95.20852612 124.79159508 97.10433961 129.89576908 99 135 C99.45117188 136.21461914 99.90234375 137.42923828 100.3671875 138.68066406 C102.86730203 145.41327017 105.36251055 152.14764801 107.84912109 158.88525391 C108.6315302 161.00277095 109.4157777 163.11960943 110.20166016 165.23583984 C111.34738387 168.32221224 112.48692726 171.41079963 113.625 174.5 C113.96829346 175.42079346 114.31158691 176.34158691 114.6652832 177.2902832 C114.97425537 178.13292725 115.28322754 178.97557129 115.6015625 179.84375 C116.00882568 180.94493164 116.00882568 180.94493164 116.42431641 182.06835938 C117 184 117 184 117 187 C102.48 187.33 87.96 187.66 73 188 C71.96875 184.865 70.9375 181.73 69.875 178.5 C67.35943342 170.88843232 64.72122092 163.34644966 61.77880859 155.88867188 C60.68909841 153.08335902 60 151.04311661 60 148 C59.46544189 148.16233124 58.93088379 148.32466248 58.38012695 148.49191284 C55.50693893 149.10525405 52.85732157 149.12723018 49.91796875 149.12939453 C48.68989502 149.13254669 47.46182129 149.13569885 46.1965332 149.13894653 C44.86018844 149.13715657 43.523844 149.13510558 42.1875 149.1328125 C40.81274397 149.13348644 39.43798805 149.13445722 38.06323242 149.13571167 C35.18504703 149.13718439 32.30689271 149.13504775 29.42871094 149.13037109 C25.74333726 149.12467405 22.05803641 149.12795533 18.37266541 149.13394356 C15.53478448 149.13756064 12.69692076 149.1364053 9.85903931 149.13381577 C8.50029492 149.13314967 7.14154895 149.13396381 5.7828064 149.13629532 C3.88254833 149.13884061 1.98228476 149.13427201 0.08203125 149.12939453 C-0.99844482 149.12859894 -2.0789209 149.12780334 -3.19213867 149.12698364 C-5.63610329 149.01645698 -7.66976701 148.70763047 -10 148 C-10.33064453 149.74796875 -10.33064453 149.74796875 -10.66796875 151.53125 C-12.11270689 158.00530044 -14.32889636 164.2121899 -16.57592773 170.44140625 C-17.31870488 172.51734159 -18.03305968 174.60185623 -18.74804688 176.6875 C-19.22223623 178.01103492 -19.69808746 179.33397587 -20.17578125 180.65625 C-20.59770752 181.85056641 -21.01963379 183.04488281 -21.4543457 184.27539062 C-23 187 -23 187 -25.11279297 187.90405273 C-29.09215133 188.03629422 -33.04033372 188.0089457 -37.01953125 187.87890625 C-37.87810226 187.85529526 -38.73667328 187.83168427 -39.6212616 187.80735779 C-42.35185646 187.73104912 -45.08214396 187.64688452 -47.8125 187.5625 C-49.66860497 187.50924644 -51.52472474 187.45650629 -53.38085938 187.40429688 C-57.92076596 187.27547858 -62.46041317 187.13961628 -67 187 C-67.33 186.01 -67.66 185.02 -68 184 C-67.34 184 -66.68 184 -66 184 C-65.90138672 183.36376709 -65.80277344 182.72753418 -65.70117188 182.07202148 C-64.74049058 177.86301982 -63.26096485 173.89907147 -61.78125 169.84765625 C-61.45181396 168.93729111 -61.12237793 168.02692596 -60.78295898 167.088974 C-59.69232932 164.0787962 -58.5962897 161.07062062 -57.5 158.0625 C-56.72965614 155.94081386 -55.95947642 153.81906812 -55.18945312 151.69726562 C-49.66606919 136.49597105 -44.06950659 121.32205687 -38.44592285 106.15759277 C-32.61002455 90.41904549 -26.87434137 74.64608 -21.18408203 58.8543396 C-15.83133828 44.00193092 -10.39544613 29.18317868 -4.84472656 14.40356445 C-4.58987488 13.72277832 -4.33502319 13.04199219 -4.07244873 12.34057617 C-3.3957637 10.53343776 -2.71654186 8.72724982 -2.03710938 6.92114258 C-0.89538702 3.85362425 -0.89538702 3.85362425 0 0 Z M24 49 C23.770849 49.63956131 23.541698 50.27912262 23.30560303 50.93806458 C20.90472903 57.6387525 18.50349189 64.33931022 16.10205078 71.03979492 C15.20772472 73.53519455 14.31354609 76.03064687 13.41943359 78.52612305 C12.1288227 82.12817921 10.83787912 85.730116 9.546875 89.33203125 C9.15191833 90.43456741 8.75696167 91.53710358 8.35003662 92.67304993 C7.96994446 93.73331894 7.58985229 94.79358795 7.19824219 95.88598633 C6.65218323 97.41118393 6.65218323 97.41118393 6.09509277 98.9671936 C5.34815028 101.03581465 4.5919687 103.10111726 3.82775879 105.16342163 C3.46081909 106.15451935 3.09387939 107.14561707 2.71582031 108.16674805 C2.22048798 109.49188667 2.22048798 109.49188667 1.71514893 110.84379578 C0.8950644 112.93776735 0.8950644 112.93776735 1 115 C16.84 115 32.68 115 49 115 C40.3840144 90.45403323 40.3840144 90.45403323 31.59048462 65.97125244 C31.11440009 64.65957815 30.64025021 63.3472 30.1680603 62.03411865 C29.51079649 60.2082467 28.84544334 58.38529271 28.1796875 56.5625 C27.80569824 55.53253906 27.43170898 54.50257813 27.04638672 53.44140625 C26.12733018 50.87975134 26.12733018 50.87975134 24 49 Z " fill="#142C48" transform="translate(180,403)"/>
<path d="M0 0 C13.2 0 26.4 0 40 0 C40.33 21.12 40.66 42.24 41 64 C44.24521361 62.05287183 46.87708084 60.37679599 49.75 58.0625 C61.60507014 49.11569613 75.56965807 47.88917512 90 49 C99.74316145 50.51339356 109.41051049 53.37006477 116 61 C116.55429687 61.55300781 117.10859375 62.10601562 117.6796875 62.67578125 C127.78325794 73.14793688 130.34079906 87.14775067 130.22705078 101.22314453 C130.22734283 102.19020828 130.22763489 103.15727203 130.22793579 104.15364075 C130.22655528 107.31345965 130.21105488 110.47303538 130.1953125 113.6328125 C130.19157782 115.83812328 130.188733 118.04343574 130.18673706 120.24874878 C130.17913646 126.02564147 130.15951893 131.80243205 130.1373291 137.57928467 C130.11679338 143.48513406 130.10771888 149.39100012 130.09765625 155.296875 C130.07626944 166.8646352 130.04111669 178.43229309 130 190 C113.665 190.495 113.665 190.495 97 191 C97 191.33 97 191.66 97 192 C94.6875 192.25 94.6875 192.25 92 192 C90.1875 190.25 90.1875 190.25 89 188 C89 186.68 89 185.36 89 184 C89.66 184 90.32 184 91 184 C90.83628906 182.83758789 90.67257812 181.67517578 90.50390625 180.47753906 C89.99837584 176.41925331 89.90020475 172.45252843 89.9375 168.359375 C89.94317993 167.32517426 89.94317993 167.32517426 89.94897461 166.27008057 C89.96105161 164.09665226 89.97968817 161.92336591 90 159.75 C90.02665681 156.8697953 90.04659292 153.98965684 90.0625 151.109375 C90.07410156 149.84061523 90.08570313 148.57185547 90.09765625 147.26464844 C90.01717481 144.57415387 89.66668863 142.56170903 89 140 C89.31669821 137.66435067 89.64820803 135.3306218 90 133 C89.67 132.67 89.34 132.34 89 132 C88.95907063 129.66702567 88.95758277 127.33294775 89 125 C89.66 125 90.32 125 91 125 C90.80670703 121.03907856 90.5637431 117.08263462 90.3125 113.125 C90.23225586 111.46210938 90.23225586 111.46210938 90.15039062 109.765625 C89.56727592 101.14566854 87.72990066 93.82553914 81.5625 87.5 C74.16051648 83.1671316 66.3557554 83.23957258 58 84 C54.90157705 85.00995792 52.78108424 86.23508115 50 88 C49.01 88.33 48.02 88.66 47 89 C45.88215115 90.83387584 45.88215115 90.83387584 45 93 C44.65132874 93.6211972 44.30265747 94.24239441 43.94342041 94.88241577 C39.61791678 103.71056512 40.499067 113.20856612 40.609375 122.7890625 C40.61684659 124.70290533 40.62253518 126.61675588 40.62652588 128.53060913 C40.64170996 133.53828504 40.68092858 138.54548793 40.7253418 143.55297852 C40.76645134 148.67457686 40.78457023 153.79625254 40.8046875 158.91796875 C40.84743057 168.94551894 40.91559319 178.97271995 41 189 C28.77252638 195.11373681 13.6707311 190 0 190 C0 127.3 0 64.6 0 0 Z M90 126 C90 127.98 90 129.96 90 132 C90.33 132 90.66 132 91 132 C91 130.02 91 128.04 91 126 C90.67 126 90.34 126 90 126 Z M90 185 C91 187 91 187 91 187 Z " fill="#152D49" transform="translate(391,400)"/>
<path d="M0 0 C14.66591814 12.6283631 23.23981989 29.06899844 24.93359375 48.40625 C25.32590195 56.00722141 25.60188241 62.58885573 23.05859375 69.828125 C11.24548349 69.85126995 -0.5676214 69.86905111 -12.3807497 69.87993717 C-17.86573905 69.88516127 -23.35071292 69.89225038 -28.83569336 69.90356445 C-34.12653443 69.91441007 -39.41736058 69.92040541 -44.7082119 69.92300224 C-46.72927269 69.92485346 -48.75033264 69.92846829 -50.7713871 69.93385506 C-53.59671433 69.94108766 -56.42197949 69.94211499 -59.24731445 69.94165039 C-60.08744583 69.94524567 -60.92757721 69.94884094 -61.79316711 69.95254517 C-65.10035863 69.94663947 -67.78141425 69.88145567 -70.94140625 68.828125 C-70.37232872 71.2073534 -69.78679246 73.58046653 -69.19140625 75.953125 C-69.03414062 76.61828125 -68.876875 77.2834375 -68.71484375 77.96875 C-66.75725876 85.6485065 -62.52625779 91.92683749 -55.75 96.21484375 C-47.94116498 100.47976303 -40.72260493 101.05920918 -31.94140625 100.828125 C-31.61140625 100.168125 -31.28140625 99.508125 -30.94140625 98.828125 C-30.09578125 98.60125 -29.25015625 98.374375 -28.37890625 98.140625 C-21.72697786 95.6007978 -16.83643314 89.87612148 -11.94140625 84.828125 C-11.28140625 85.158125 -10.62140625 85.488125 -9.94140625 85.828125 C-9.61140625 85.168125 -9.28140625 84.508125 -8.94140625 83.828125 C-8.94140625 84.488125 -8.94140625 85.148125 -8.94140625 85.828125 C1.28859375 85.828125 11.51859375 85.828125 22.05859375 85.828125 C22.38859375 85.168125 22.71859375 84.508125 23.05859375 83.828125 C22.47596565 96.64594316 13.41284766 107.76086321 4.62109375 116.390625 C-11.96378598 130.80457679 -31.73776875 133.14382836 -52.94140625 131.828125 C-66.62153524 130.38993538 -80.81619407 124.27832303 -90.94140625 114.828125 C-90.94140625 114.168125 -90.94140625 113.508125 -90.94140625 112.828125 C-91.60140625 112.828125 -92.26140625 112.828125 -92.94140625 112.828125 C-106.23959176 98.06713909 -111.55127599 80.61956255 -111.37890625 60.953125 C-111.37060791 59.72513184 -111.36230957 58.49713867 -111.35375977 57.23193359 C-110.94696146 35.38063959 -102.37715581 17.90927087 -86.87890625 2.640625 C-63.20900099 -18.20987326 -24.93711798 -18.41306454 0 0 Z M-62.94140625 26.828125 C-67.46525335 32.79085477 -69.94140625 38.23915971 -69.94140625 45.828125 C-51.46140625 45.828125 -32.98140625 45.828125 -13.94140625 45.828125 C-12.07409662 42.09350575 -14.29730342 38.01912658 -15.515625 34.234375 C-18.5941031 26.8797643 -23.80971926 21.60481982 -31.13671875 18.46875 C-43.01539837 14.25207585 -54.67441536 17.58529777 -62.94140625 26.828125 Z " fill="#152D48" transform="translate(704.94140625,461.171875)"/>
<path d="M0 0 C2.49267739 2.49267739 2.23671944 3.95786199 2.25224304 7.35913086 C2.24505753 8.08624268 2.23787201 8.81335449 2.23046875 9.5625 C2.23001053 10.30959229 2.22955231 11.05668457 2.2290802 11.82641602 C2.22605775 13.40675443 2.21817164 14.98708986 2.20581055 16.56738281 C2.1875727 18.9903414 2.18530073 21.41291749 2.18554688 23.8359375 C2.18063092 25.36979498 2.17480226 26.90364986 2.16796875 28.4375 C2.16685593 29.16461182 2.1657431 29.89172363 2.16459656 30.64086914 C2.11607343 35.76785315 2.11607343 35.76785315 1 38 C11.23 38 21.46 38 32 38 C32 47.9 32 57.8 32 68 C28.44970158 68.8875746 25.82462973 69.12879154 22.2109375 69.1328125 C20.55191406 69.13474609 20.55191406 69.13474609 18.859375 69.13671875 C17.13460937 69.13091797 17.13460937 69.13091797 15.375 69.125 C13.63863281 69.13080078 13.63863281 69.13080078 11.8671875 69.13671875 C10.76375 69.13542969 9.6603125 69.13414062 8.5234375 69.1328125 C7.51200684 69.13168457 6.50057617 69.13055664 5.45849609 69.12939453 C3 69 3 69 1 68 C1.08472598 75.92852599 1.17973129 83.85683636 1.28752708 91.785079 C1.33727594 95.46727741 1.38360603 99.14945008 1.421875 102.83178711 C1.45900064 106.39160625 1.5054306 109.95119796 1.55806351 113.51082039 C1.58536163 115.51628751 1.60325283 117.52187566 1.62094116 119.52745056 C1.5358693 132.61795917 1.5358693 132.61795917 7 144 C14.25860281 148.19877025 22.9269956 147.28718197 31 147 C32.04518445 156.68662016 32.10371911 166.27345227 32 176 C31.01 176.33 30.02 176.66 29 177 C28.67 177.66 28.34 178.32 28 179 C23.82319455 179.07533781 19.64677089 179.12914847 15.46948242 179.16479492 C14.05469863 179.17968738 12.63995933 179.20000836 11.2253418 179.22631836 C-3.0252682 179.48431662 -16.91830014 178.38310756 -27.87890625 168.265625 C-31.10527298 164.7516063 -32.67765533 161.62820635 -34 157 C-34.66 156.67 -35.32 156.34 -36 156 C-38.46536763 145.89320672 -38.26879678 135.42868248 -38.1953125 125.1015625 C-38.1915707 123.52973615 -38.18872927 121.95790742 -38.18673706 120.38607788 C-38.1791923 116.29924797 -38.15962552 112.21256594 -38.1373291 108.12579346 C-38.11667037 103.93544514 -38.10769304 99.74507234 -38.09765625 95.5546875 C-38.0763685 87.36972468 -38.04234701 79.18488087 -38 71 C-38.66 70.67 -39.32 70.34 -40 70 C-40 69.67 -40 69.34 -40 69 C-45.61 68.67 -51.22 68.34 -57 68 C-57.495 68.99 -57.495 68.99 -58 70 C-58.99 69.34 -59.98 68.68 -61 68 C-61.34057617 65.01904297 -61.34057617 65.01904297 -61.29296875 61.2421875 C-61.28872391 60.57913605 -61.28447906 59.91608459 -61.28010559 59.23294067 C-61.26329971 57.11321559 -61.22564701 54.99443812 -61.1875 52.875 C-61.17245549 51.43881581 -61.15876668 50.00261672 -61.14648438 48.56640625 C-61.11593991 45.04361126 -61.0572307 41.52286731 -61 38 C-53.41 37.67 -45.82 37.34 -38 37 C-38 25.78 -38 14.56 -38 3 C-38.99 2.67 -39.98 2.34 -41 2 C-35.13598435 1.02266406 -29.45232117 0.95462956 -23.51123047 1.02392578 C-17.44976903 1.06743245 -11.44573248 0.71166549 -5.40844727 0.1796875 C-3.60981892 0.04305579 -1.80376635 0.01261375 0 0 Z " fill="#152D49" transform="translate(345,413)"/>
<path d="M0 0 C0 62.7 0 125.4 0 190 C-13.2 190.33 -26.4 190.66 -40 191 C-41.14920917 170.31423501 -41.14920917 170.31423501 -41.12939453 160.35131836 C-41.13114685 159.21795547 -41.13289917 158.08459259 -41.13470459 156.91688538 C-41.13904917 153.22452183 -41.13620522 149.53220767 -41.1328125 145.83984375 C-41.13348909 143.20284469 -41.1344618 140.56584699 -41.13571167 137.92884827 C-41.13752138 132.40430188 -41.13516712 126.87976894 -41.13037109 121.35522461 C-41.12560077 115.7989005 -41.12549142 110.24260331 -41.13037109 104.6862793 C-41.16031849 69.78024354 -40.89973255 34.89620188 -40 0 C-38.83450623 -0.03693466 -37.66901245 -0.07386932 -36.46820068 -0.11192322 C-35.34303228 -0.14759698 -35.34303228 -0.14759698 -34.19513321 -0.18399143 C-32.55757049 -0.23586301 -30.92000485 -0.28764231 -29.28243637 -0.33933163 C-25.90114702 -0.4461529 -22.51989895 -0.55351731 -19.13879395 -0.66604614 C-16.84785943 -0.74221279 -14.55683447 -0.81161804 -12.265625 -0.87890625 C-11.50878418 -0.90561401 -10.75194336 -0.93232178 -9.97216797 -0.95983887 C-6.35904286 -1.06086768 -3.54113609 -0.88528402 0 0 Z " fill="#152D48" transform="translate(580,400)"/>
<path d="M0 0 C2.49267739 2.49267739 2.23671944 3.95786199 2.25224304 7.35913086 C2.24505753 8.08624268 2.23787201 8.81335449 2.23046875 9.5625 C2.23001053 10.30959229 2.22955231 11.05668457 2.2290802 11.82641602 C2.22605775 13.40675443 2.21817164 14.98708986 2.20581055 16.56738281 C2.1875727 18.9903414 2.18530073 21.41291749 2.18554688 23.8359375 C2.18063092 25.36979498 2.17480226 26.90364986 2.16796875 28.4375 C2.16685593 29.16461182 2.1657431 29.89172363 2.16459656 30.64086914 C2.11607343 35.76785315 2.11607343 35.76785315 1 38 C0.34 38 -0.32 38 -1 38 C-1 26.78 -1 15.56 -1 4 C-12.22 4 -23.44 4 -35 4 C-34.96042554 15.09938953 -34.96042554 15.09938953 -34.90991211 26.19873047 C-34.90699203 27.58821537 -34.90444369 28.97770112 -34.90234375 30.3671875 C-34.89722778 31.09107666 -34.89211182 31.81496582 -34.88684082 32.56079102 C-34.8859282 37.7718564 -34.8859282 37.7718564 -36 40 C-43.59 40 -51.18 40 -59 40 C-59 48.91 -59 57.82 -59 67 C-59.33 67 -59.66 67 -60 67 C-60 57.43 -60 47.86 -60 38 C-52.74 37.67 -45.48 37.34 -38 37 C-38 25.78 -38 14.56 -38 3 C-38.99 2.67 -39.98 2.34 -41 2 C-35.13598435 1.02266406 -29.45232117 0.95462956 -23.51123047 1.02392578 C-17.44976903 1.06743245 -11.44573248 0.71166549 -5.40844727 0.1796875 C-3.60981892 0.04305579 -1.80376635 0.01261375 0 0 Z " fill="#0A1426" transform="translate(345,413)"/>
<path d="M0 0 C31.35 0 62.7 0 95 0 C95 0.33 95 0.66 95 1 C84.58680477 3.02265166 74.55833763 3.28000726 63.9921875 3.23046875 C62.29159582 3.22927363 60.59100346 3.22882449 58.89041138 3.2290802 C55.35560882 3.22752849 51.82090945 3.21933392 48.28613281 3.20581055 C43.75455956 3.1886917 39.22309772 3.18500065 34.6914959 3.18575573 C31.19313493 3.18548426 27.69479834 3.18000894 24.19644547 3.17275429 C22.52427479 3.16957471 20.85210136 3.16760187 19.17992783 3.16686058 C16.85411578 3.16469685 14.52842316 3.15595573 12.20263672 3.14526367 C11.16944054 3.14594345 11.16944054 3.14594345 10.1153717 3.14663696 C7.12632223 3.12650476 4.86199677 2.95399892 2 2 C2.56907753 4.3792284 3.15461379 6.75234153 3.75 9.125 C3.98589844 10.12273438 3.98589844 10.12273438 4.2265625 11.140625 C5.64590584 16.70881809 8.21972997 20.7110814 11.75 25.25 C13 27 13 27 13 29 C7.7342451 27.24474837 5.42845481 21.78576052 2.98046875 17.01171875 C0.53183886 11.18566833 0.60992833 6.70921161 0 0 Z " fill="#162639" transform="translate(632,528)"/>
<path d="M0 0 C0.66 0 1.32 0 2 0 C2.47308594 0.84820312 2.94617188 1.69640625 3.43359375 2.5703125 C7.16924904 9.21648219 11.03963293 15.71882538 15.21386719 22.1027832 C19.62167997 28.88281759 23.78008061 35.81490448 27.95166016 42.74194336 C31.09137164 47.93742895 34.33024058 53.03100036 37.72485352 58.06323242 C39.25640225 60.38943884 40.591658 62.77896882 41.875 65.25 C44.06105618 69.33820895 46.37272369 73.30770799 48.8125 77.25 C49.47636719 78.32636719 50.14023437 79.40273438 50.82421875 80.51171875 C52.38607406 83.03025574 53.9797747 85.52653677 55.58203125 88.01953125 C56.43005687 89.3669551 57.27772016 90.71460707 58.125 92.0625 C58.53983643 92.69381836 58.95467285 93.32513672 59.38208008 93.97558594 C62.13751746 98.40484247 62.13751746 98.40484247 61.5234375 101.0625 C61.02070312 101.701875 60.51796875 102.34125 60 103 C59.3296875 103.91652344 58.659375 104.83304687 57.96875 105.77734375 C57.14933906 106.83345851 56.32621581 107.88670025 55.5 108.9375 C54.60392138 110.08704842 53.70809586 111.23679417 52.8125 112.38671875 C52.35101562 112.97759277 51.88953125 113.5684668 51.4140625 114.17724609 C49.9917515 116.01063247 48.58715282 117.85630316 47.1875 119.70703125 C46.73697266 120.3007251 46.28644531 120.89441895 45.82226562 121.50610352 C44.95366563 122.65167401 44.08769324 123.79924249 43.22460938 124.94897461 C40.22424018 128.88787991 40.22424018 128.88787991 38 130 C39.35702748 126.16256377 41.09153446 123.29791884 43.58984375 120.09375 C44.29173828 119.18496094 44.99363281 118.27617188 45.71679688 117.33984375 C46.44962891 116.40269531 47.18246094 115.46554687 47.9375 114.5 C49.38645794 112.63723709 50.83315285 110.7727112 52.27734375 108.90625 C52.91921631 108.08447266 53.56108887 107.26269531 54.22241211 106.41601562 C55.98366724 104.02219873 57.51394656 101.57189446 59 99 C51.31429104 86.15667315 43.61778832 73.32169691 35.79296875 60.5625 C33.76549739 57.25555643 31.74924607 53.94200701 29.73828125 50.625 C22.90295242 39.35487348 15.99638746 28.13450988 8.97363281 16.97998047 C0 2.69886151 0 2.69886151 0 0 Z " fill="#1F6F2E" transform="translate(729,403)"/>
<path d="M0 0 C2.79561603 2.62790143 4.83652025 5.10742633 6.69921875 8.45703125 C7.18100586 9.31377441 7.66279297 10.17051758 8.15917969 11.05322266 C8.91569824 12.41906494 8.91569824 12.41906494 9.6875 13.8125 C10.7683107 15.73376005 11.85034697 17.65433116 12.93359375 19.57421875 C13.46065918 20.51056152 13.98772461 21.4469043 14.53076172 22.41162109 C16.7101905 26.25115316 18.98296557 30.02829085 21.26635742 33.80688477 C24.99766077 39.98682989 28.70164891 46.18285766 32.39147949 52.38763428 C33.1271075 53.62352336 33.86383289 54.85875996 34.60168457 56.09332275 C35.6434367 57.83662817 36.68116888 59.58233386 37.71875 61.328125 C38.32654297 62.3480957 38.93433594 63.36806641 39.56054688 64.41894531 C41 67 41 67 42 70 C60.15 70 78.3 70 97 70 C97 70.33 97 70.66 97 71 C89.70661859 71.37213713 82.41531161 71.65562763 75.11433411 71.82899475 C71.73031908 71.91210306 68.35288029 72.02444981 64.97265625 72.20703125 C43.54100052 73.28177505 43.54100052 73.28177505 38.10791016 69.78076172 C34.92900332 66.29825765 33.5986314 62.01726944 32.06494141 57.6328125 C29.95532363 52.41728794 26.77863811 47.76214157 23.8125 43 C22.51932035 40.8657705 21.23030291 38.72901387 19.9453125 36.58984375 C19.29723633 35.51202637 18.64916016 34.43420898 17.98144531 33.32373047 C14.05297123 26.73400078 10.21584935 20.09025593 6.3918457 13.43945312 C5.56946411 12.01729492 5.56946411 12.01729492 4.73046875 10.56640625 C4.00960083 9.31259155 4.00960083 9.31259155 3.27416992 8.03344727 C2.03249883 5.88334217 2.03249883 5.88334217 0 4 C-2.31 7.3 -4.62 10.6 -7 14 C-7.99 13.67 -8.98 13.34 -10 13 C-8.71053695 11.20674674 -7.41835648 9.41544722 -6.125 7.625 C-5.04605469 6.12839844 -5.04605469 6.12839844 -3.9453125 4.6015625 C-2 2 -2 2 0 0 Z " fill="#0F551C" transform="translate(811,537)"/>
<path d="M0 0 C9.9 0 19.8 0 30 0 C30.165 3.114375 30.33 6.22875 30.5 9.4375 C30.57831055 10.88080688 30.57831055 10.88080688 30.65820312 12.35327148 C30.94398058 17.91062232 31.04528703 23.43535641 31 29 C27.68358498 29.99541875 24.66581207 30.12896826 21.2109375 30.1328125 C19.55191406 30.13474609 19.55191406 30.13474609 17.859375 30.13671875 C16.13460938 30.13091797 16.13460938 30.13091797 14.375 30.125 C12.63863281 30.13080078 12.63863281 30.13080078 10.8671875 30.13671875 C9.76375 30.13542969 8.6603125 30.13414062 7.5234375 30.1328125 C6.51200684 30.13168457 5.50057617 30.13055664 4.45849609 30.12939453 C2 30 2 30 0 29 C0 51.44 0 73.88 0 97 C-0.33 97 -0.66 97 -1 97 C-1 73.9 -1 50.8 -1 27 C8.57 27 18.14 27 28 27 C28 18.42 28 9.84 28 1 C18.76 1 9.52 1 0 1 C0 0.67 0 0.34 0 0 Z " fill="#070F1D" transform="translate(346,452)"/>
<path d="M0 0 C0.66 0.33 1.32 0.66 2 1 C1.63648438 1.47421387 1.27296875 1.94842773 0.8984375 2.43701172 C-0.73934936 4.57925793 -2.36973945 6.72702158 -4 8.875 C-4.85851562 9.99455078 -4.85851562 9.99455078 -5.734375 11.13671875 C-6.54648437 12.20986328 -6.54648437 12.20986328 -7.375 13.3046875 C-7.87773438 13.96452637 -8.38046875 14.62436523 -8.8984375 15.30419922 C-10.18158073 16.94250583 -10.18158073 16.94250583 -10 19 C-11.15996143 20.16850627 -12.32470102 21.33260224 -13.51123047 22.47412109 C-16.31685758 25.34968184 -18.65134047 28.60615527 -21.0625 31.8125 C-21.90361328 32.92214111 -21.90361328 32.92214111 -22.76171875 34.05419922 C-24.51208635 36.36627391 -26.2565377 38.68271523 -28 41 C-29.11327836 42.4752626 -30.22655953 43.95052307 -31.33984375 45.42578125 C-33.3436368 48.08667509 -35.34677864 50.74804438 -37.34375 53.4140625 C-37.73755859 53.9395166 -38.13136719 54.4649707 -38.53710938 55.00634766 C-40.72107218 57.98268948 -42.8542701 60.99597813 -45 64 C-29.16 64.33 -13.32 64.66 3 65 C3 65.33 3 65.66 3 66 C-14.92768995 68.04055008 -33.03431143 66.96888969 -51 66 C-49.515 65.505 -49.515 65.505 -48 65 C-46.95539939 63.17227174 -46.95539939 63.17227174 -46 61 C-44.96924844 59.47800872 -43.90151215 57.9808642 -42.8125 56.5 C-42.09964844 55.530625 -41.38679687 54.56125 -40.65234375 53.5625 C-36.76523531 48.32909512 -32.84602581 43.11955528 -28.92651367 37.91040039 C-25.05279268 32.75710065 -21.21567429 27.57934649 -17.40917969 22.3762207 C-11.81378996 14.72811616 -6.13800575 7.22595915 0 0 Z " fill="#14502A" transform="translate(747,558)"/>
<path d="M0 0 C4.36949723 1.50472752 5.5731447 4.29611127 7.6875 8.25 C8.39530269 9.54078643 9.106332 10.82980795 9.8203125 12.1171875 C10.18286133 12.77170898 10.54541016 13.42623047 10.91894531 14.10058594 C12.85851563 17.50841273 15.01711213 20.77149712 17.15771484 24.05493164 C20.94889122 29.88720651 24.63274479 35.78442429 28.3125 41.6875 C32.49924238 48.40126665 36.69171949 55.11085669 40.92382812 61.79614258 C42.39232065 64.11612391 43.85660613 66.43871579 45.3203125 68.76171875 C47.04923771 71.50404485 48.79467178 74.23457134 50.5546875 76.95703125 C51.30751223 78.13788025 52.06013137 79.31886035 52.8125 80.5 C53.45832031 81.5003125 54.10414063 82.500625 54.76953125 83.53125 C56 86 56 86 55 89 C47.21317705 77.22683642 39.54399187 65.41587755 32.34399414 53.2734375 C29.04124174 47.71090714 25.65478904 42.21144131 22.1875 36.75 C21.70796875 35.99428711 21.2284375 35.23857422 20.734375 34.45996094 C19.71988725 32.86187715 18.70523268 31.26389925 17.69042969 29.66601562 C14.3845837 24.45228972 11.09577971 19.22795851 7.8125 14 C7.15209717 12.95424805 6.49169434 11.90849609 5.8112793 10.83105469 C4.89342651 9.36780762 4.89342651 9.36780762 3.95703125 7.875 C3.41022705 7.00617188 2.86342285 6.13734375 2.30004883 5.2421875 C1 3 1 3 0 0 Z " fill="#1D6D2C" transform="translate(844,503)"/>
<path d="M0 0 C3.9253431 2.6168954 4.64058021 5.6929041 6.13671875 9.96484375 C6.42102249 10.75395645 6.70532623 11.54306915 6.99824524 12.35609436 C7.59710476 14.02467352 8.19107683 15.69501371 8.78051758 17.36694336 C9.6841061 19.92788106 10.60339895 22.48274707 11.52539062 25.03710938 C12.10510168 26.65852017 12.68390837 28.28025465 13.26171875 29.90234375 C13.53666672 30.66804184 13.81161469 31.43373993 14.09489441 32.22264099 C15.16435456 35.27014575 16 37.74543597 16 41 C1.48 41.33 -13.04 41.66 -28 42 C-28 40.02 -28 38.04 -28 36 C-27.34 36.66 -26.68 37.32 -26 38 C-23.0633979 38.2459409 -20.21437888 38.37375252 -17.2734375 38.4140625 C-16.41062164 38.43342865 -15.54780579 38.4527948 -14.65884399 38.4727478 C-11.89766384 38.53262204 -9.13644216 38.57895998 -6.375 38.625 C-4.50518995 38.66317259 -2.63539762 38.70222389 -0.765625 38.7421875 C3.82277309 38.83832992 8.41125351 38.92233166 13 39 C12.21152607 36.60743495 11.42084826 34.21563583 10.62890625 31.82421875 C10.40771118 31.15225464 10.18651611 30.48029053 9.95861816 29.78796387 C8.7281179 26.07835084 7.42688409 22.42845463 5.9375 18.8125 C0 4.39285714 0 4.39285714 0 0 Z " fill="#172435" transform="translate(281,549)"/>
<path d="M0 0 C7.77780059 -0.10124221 15.55543193 -0.17139908 23.33374023 -0.21972656 C25.98094025 -0.23986848 28.62809563 -0.26718355 31.27514648 -0.30175781 C35.07546995 -0.35016051 38.87520631 -0.3729433 42.67578125 -0.390625 C44.45714226 -0.42159271 44.45714226 -0.42159271 46.27449036 -0.45318604 C47.9258625 -0.45363922 47.9258625 -0.45363922 49.6105957 -0.45410156 C51.06620659 -0.46742523 51.06620659 -0.46742523 52.55122375 -0.48101807 C55 0 55 0 56.89933777 1.84088135 C57.2625563 2.5533905 57.62577484 3.26589966 58 4 C57.67 4.99 57.34 5.98 57 7 C56.34 6.01 55.68 5.02 55 4 C52.54018574 3.52264442 52.54018574 3.52264442 49.63232422 3.56762695 C48.51131317 3.54783279 47.39030212 3.52803864 46.23532104 3.50764465 C45.02071198 3.50125473 43.80610291 3.49486481 42.5546875 3.48828125 C41.31453888 3.47033005 40.07439026 3.45237885 38.79666138 3.43388367 C35.49883932 3.38880026 32.20121493 3.35655106 28.90319824 3.33044434 C25.53819195 3.30067269 22.17342267 3.25413089 18.80859375 3.20898438 C12.20583821 3.12381922 5.60306736 3.05556371 -1 3 C-0.67 2.01 -0.34 1.02 0 0 Z " fill="#2B7B38" transform="translate(728,399)"/>
<path d="M0 0 C5.38802849 0.6338857 9.13304122 2.78714387 12.64453125 6.94921875 C18.27873501 14.80420355 19.32027044 22.69173807 19.1953125 32.19140625 C19.1924826 33.02212143 19.18965271 33.85283661 19.18673706 34.70872498 C19.17566291 37.32680505 19.1505836 39.94452571 19.125 42.5625 C19.11495365 44.35220855 19.10583072 46.14192254 19.09765625 47.93164062 C19.07576565 52.28789604 19.04132633 56.64388738 19 61 C18.01 61.495 18.01 61.495 17 62 C15 60 15 60 14.8125 57.625 C14.97982103 55.28250552 15.43367932 53.26528271 16 51 C15.67 50.67 15.34 50.34 15 50 C14.95907063 47.66702567 14.95758277 45.33294775 15 43 C15.66 43 16.32 43 17 43 C16.80670703 39.03907856 16.5637431 35.08263462 16.3125 31.125 C16.25900391 30.01640625 16.20550781 28.9078125 16.15039062 27.765625 C15.57477896 19.25658299 13.87013393 11.67662724 7.5 5.625 C6.675 5.08875 5.85 4.5525 5 4 C3.33333333 2.66666667 1.66666667 1.33333333 0 0 Z M16 44 C16 45.98 16 47.96 16 50 C16.33 50 16.66 50 17 50 C17 48.02 17 46.04 17 44 C16.67 44 16.34 44 16 44 Z " fill="#101C30" transform="translate(465,482)"/>
<path d="M0 0 C0.495 1.485 0.495 1.485 1 3 C-0.60561357 5.43769738 -2.24845647 7.6616141 -4.0625 9.9375 C-5.17616786 11.37529258 -6.2867074 12.81551229 -7.39453125 14.2578125 C-7.98314941 15.02383789 -8.57176758 15.78986328 -9.17822266 16.57910156 C-12.31345442 20.74540525 -15.2784733 25.02865632 -18.25 29.3125 C-22.39685293 35.27443805 -26.5520369 41.22144374 -30.86328125 47.06640625 C-32.67802099 49.55794106 -34.4587451 52.06774302 -36.23046875 54.58984375 C-36.80982178 55.4082373 -37.3891748 56.22663086 -37.98608398 57.06982422 C-39.14208 58.70341858 -40.29158861 60.34162748 -41.43383789 61.98486328 C-41.96614014 62.73364746 -42.49844238 63.48243164 -43.046875 64.25390625 C-43.51963867 64.92752197 -43.99240234 65.6011377 -44.47949219 66.29516602 C-46.16229151 68.18196557 -47.68703994 69.02423942 -50 70 C-40.74641665 55.75435195 -30.63633528 42.06160691 -20.671875 28.31005859 C-18.944826 25.92376513 -17.22186124 23.53457031 -15.5 21.14453125 C-14.92435303 20.34587646 -14.34870605 19.54722168 -13.75561523 18.72436523 C-12.66607769 17.21252388 -11.57700971 15.70034396 -10.48852539 14.18774414 C-7.04732517 9.41639728 -3.54553726 4.69431337 0 0 Z " fill="#1C6431" transform="translate(800,552)"/>
<path d="M0 0 C1.39721786 0.06193542 1.39721786 0.06193542 2.82266235 0.12512207 C3.79079865 0.13644165 4.75893494 0.14776123 5.75640869 0.15942383 C8.83523198 0.20405211 11.9093206 0.30438525 14.98672485 0.40637207 C17.07910529 0.44651677 19.17155907 0.48301581 21.2640686 0.51574707 C26.38176595 0.60374316 31.49594407 0.74169422 36.61172485 0.90637207 C37.10672485 2.39137207 37.10672485 2.39137207 37.61172485 3.90637207 C37.05906448 3.90557648 36.50640411 3.90478088 35.93699646 3.90396118 C30.17753353 3.90152081 24.4194168 3.94074625 18.66030884 4.00402832 C16.51193498 4.02218131 14.3634444 4.0297581 12.21499634 4.02648926 C9.12366548 4.02363022 6.03475201 4.05896572 2.9437561 4.10168457 C1.98524246 4.09259064 1.02672882 4.0834967 0.03916931 4.0741272 C-4.89803659 4.0889807 -4.89803659 4.0889807 -9.13891602 6.29547119 C-10.71505479 8.09524074 -10.71505479 8.09524074 -12.38827515 10.90637207 C-12.71827515 10.24637207 -13.04827515 9.58637207 -13.38827515 8.90637207 C-9.90735739 2.61810444 -7.315918 -0.00502082 0 0 Z " fill="#297D32" transform="translate(876.3882751464844,398.0936279296875)"/>
<path d="M0 0 C0.33 0.66 0.66 1.32 1 2 C11.23 2 21.46 2 32 2 C32.33 1.34 32.66 0.68 33 0 C32.58020077 9.2355831 27.31014436 17.64749242 22 25 C21.01 24.67 20.02 24.34 19 24 C19.45890625 23.38253906 19.9178125 22.76507812 20.390625 22.12890625 C21.00421875 21.28199219 21.6178125 20.43507813 22.25 19.5625 C22.85328125 18.73878906 23.4565625 17.91507813 24.078125 17.06640625 C26.45751815 13.27001677 28.18033265 9.09425153 30 5 C18.78 5 7.56 5 -4 5 C-3.67 3.68 -3.34 2.36 -3 1 C-2.01 1.33 -1.02 1.66 0 2 C0 1.34 0 0.68 0 0 Z " fill="#12242D" transform="translate(695,545)"/>
<path d="M0 0 C3.33964252 3.04540089 5.42877227 6.1872701 7.625 10.125 C9.94186904 14.34359158 9.94186904 14.34359158 13 18 C13.92374303 19.60377054 14.80885352 21.22994132 15.671875 22.8671875 C19.0071767 29.07376655 22.58901561 35.10609347 26.25 41.125 C26.87390625 42.16398437 27.4978125 43.20296875 28.140625 44.2734375 C28.73875 45.25828125 29.336875 46.243125 29.953125 47.2578125 C30.49098633 48.1461377 31.02884766 49.03446289 31.58300781 49.94970703 C32.84035477 52.12081848 32.84035477 52.12081848 35 53 C34.34 54.32 33.68 55.64 33 57 C25.24148265 44.873577 17.91373204 32.49651242 10.60229492 20.09765625 C10.19757462 19.41265045 9.79285431 18.72764465 9.37586975 18.0218811 C8.61391568 16.73204765 7.85334583 15.44139502 7.09446716 14.14974976 C5.3946684 11.27355305 3.64686354 8.4924378 1.73779297 5.74853516 C0 3 0 3 0 0 Z " fill="#217A2C" transform="translate(787,407)"/>
<path d="M0 0 C0.33 1.32 0.66 2.64 1 4 C16.84 4 32.68 4 49 4 C49.33 3.01 49.66 2.02 50 1 C50.495 3.475 50.495 3.475 51 6 C33.84 6 16.68 6 -1 6 C-0.67 4.02 -0.34 2.04 0 0 Z " fill="#121E32" transform="translate(180,514)"/>
<path d="M0 0 C2.83004958 2.65645707 4.8783001 5.17800822 6.76953125 8.5625 C7.50961426 9.87408081 7.50961426 9.87408081 8.26464844 11.2121582 C8.77543945 12.132146 9.28623047 13.05213379 9.8125 14 C10.87590715 15.88954523 11.93970753 17.77886922 13.00390625 19.66796875 C13.5158252 20.5811084 14.02774414 21.49424805 14.55517578 22.43505859 C17.30976274 27.32517191 20.15524437 32.16191209 23 37 C22.34 37.66 21.68 38.32 21 39 C11 21.5 11 21.5 1 4 C-2.28788824 7.11016455 -4.83735988 10.01618925 -7 14 C-7.99 13.67 -8.98 13.34 -10 13 C-8.71053695 11.20674674 -7.41835648 9.41544722 -6.125 7.625 C-5.04605469 6.12839844 -5.04605469 6.12839844 -3.9453125 4.6015625 C-2 2 -2 2 0 0 Z " fill="#1E6931" transform="translate(811,537)"/>
<path d="M0 0 C9.15568075 0.20345957 16.33491646 6.16333371 22.75 12.25 C27.29958743 17.01972875 30.7285034 22.29926201 34 28 C34.639375 29.11375 35.27875 30.2275 35.9375 31.375 C37.05316374 34.1313457 37.25978494 36.05577069 37 39 C34.54189536 35.96690013 32.97710749 32.92586981 31.375 29.375 C28.18884349 22.89200165 24.11978711 18.04742263 19 13 C18.43539062 12.42507813 17.87078125 11.85015625 17.2890625 11.2578125 C12.28987643 6.55126172 6.17866559 3.86105697 0 1 C0 0.67 0 0.34 0 0 Z " fill="#12212F" transform="translate(688,454)"/>
<path d="M0 0 C0.33 0.99 0.66 1.98 1 3 C6.51772989 2.88193106 12.03527291 2.75769581 17.55273438 2.62768555 C19.43062542 2.58431211 21.30855652 2.54263882 23.18652344 2.50268555 C25.8822844 2.44504124 28.57784327 2.38133019 31.2734375 2.31640625 C32.11619232 2.29969376 32.95894714 2.28298126 33.82723999 2.26576233 C38.0486661 2.26763856 38.0486661 2.26763856 42 1 C42 2.32 42 3.64 42 5 C37.29034815 6.23456893 32.79957481 6.03639376 27.98046875 5.87890625 C26.69261223 5.84348976 26.69261223 5.84348976 25.3787384 5.80735779 C22.64814354 5.73104912 19.91785604 5.64688452 17.1875 5.5625 C15.33139503 5.50924644 13.47527526 5.45650629 11.61914062 5.40429688 C7.07923404 5.27547858 2.53958683 5.13961628 -2 5 C-2.33 4.01 -2.66 3.02 -3 2 C-2.01 1.34 -1.02 0.68 0 0 Z " fill="#1D2A3B" transform="translate(115,585)"/>
<path d="M0 0 C0.495 0.99 0.495 0.99 1 2 C-11.21 2.66 -23.42 3.32 -36 4 C-36.33 14.56 -36.66 25.12 -37 36 C-37.33 36 -37.66 36 -38 36 C-38 25.11 -38 14.22 -38 3 C-38.99 2.67 -39.98 2.34 -41 2 C-35.13657583 1.02276264 -29.4555605 0.96285248 -23.515625 1.01953125 C-15.6548758 1.0632831 -7.83861637 0.54327044 0 0 Z " fill="#31455A" transform="translate(345,413)"/>
<path d="M0 0 C0.66 0 1.32 0 2 0 C2.763125 0.99 3.52625 1.98 4.3125 3 C11.65368646 11.75977321 22.16007307 15.80354764 32.78515625 18.9921875 C35.38862338 19.80834123 37.62405957 20.68464146 40 22 C26.73032641 22.85610797 15.82082209 16.00602645 5.43359375 8.33203125 C4.72396484 7.67267578 4.72396484 7.67267578 4 7 C4 6.34 4 5.68 4 5 C3.34 5 2.68 5 2 5 C1.34 3.35 0.68 1.7 0 0 Z " fill="#131F2E" transform="translate(610,569)"/>
<path d="M0 0 C4.80300681 4.80300681 4.13621644 14.5050769 4.1875 20.9375 C4.16375048 24.77067307 3.86035264 28.26262815 3 32 C0.85301693 28.48949434 0.69703865 25.5580839 0.5859375 21.484375 C0.54726563 20.23398437 0.50859375 18.98359375 0.46875 17.6953125 C0.4378125 16.39335938 0.406875 15.09140625 0.375 13.75 C0.33632813 12.43257813 0.29765625 11.11515625 0.2578125 9.7578125 C0.16353818 6.50534839 0.0779325 3.25289004 0 0 Z " fill="#13242E" transform="translate(726,498)"/>
<path d="M0 0 C0.33 0 0.66 0 1 0 C1 11.88 1 23.76 1 36 C-2.4247039 31.43372813 -2.35908732 30.20186406 -2.25 24.6875 C-2.23831787 23.99197021 -2.22663574 23.29644043 -2.21459961 22.57983398 C-1.7664706 1.7664706 -1.7664706 1.7664706 0 0 Z " fill="#040D1E" transform="translate(483,544)"/>
<path d="M0 0 C5.15763282 0.93468018 7.84213081 3.97780023 11 8 C18.16811311 20.40019566 18.16811311 20.40019566 18.0625 27.6875 C18.05347656 28.49574219 18.04445313 29.30398438 18.03515625 30.13671875 C18.02355469 30.75160156 18.01195312 31.36648438 18 32 C17.67 32 17.34 32 17 32 C16.76925781 31.09378906 16.53851562 30.18757813 16.30078125 29.25390625 C13.35904853 18.26601131 10.0111252 10.39114067 1.57421875 2.53125 C1.05472656 2.0259375 0.53523438 1.520625 0 1 C0 0.67 0 0.34 0 0 Z " fill="#0E1B2D" transform="translate(501,458)"/>
<path d="M0 0 C0.79719955 0.00222061 1.59439911 0.00444122 2.41575623 0.00672913 C3.31661453 0.00680466 4.21747284 0.00688019 5.14562988 0.00695801 C6.12478867 0.01211929 7.10394745 0.01728058 8.11277771 0.02259827 C9.11018478 0.02401321 10.10759186 0.02542816 11.13522339 0.02688599 C14.3348027 0.03250337 17.53431315 0.04505881 20.73387146 0.05775452 C22.89728191 0.06276728 25.06069345 0.06733057 27.22410583 0.07142639 C32.53988471 0.08247845 37.85562317 0.09923348 43.17137146 0.12025452 C43.17137146 0.45025452 43.17137146 0.78025452 43.17137146 1.12025452 C41.93048767 1.1243634 40.68960388 1.12847229 39.41111755 1.13270569 C34.79253512 1.15453232 30.17480032 1.20885884 25.55662537 1.27284241 C23.56061446 1.2959916 21.56448195 1.31041088 19.56834412 1.31581116 C16.69306421 1.32512322 13.81968895 1.36616268 10.94480896 1.41322327 C10.05707794 1.40929062 9.16934692 1.40535797 8.25471497 1.40130615 C2.14095078 1.54420315 -0.54399554 2.73160929 -4.82862854 7.12025452 C-5.38292542 7.64232483 -5.93722229 8.16439514 -6.50831604 8.70228577 C-6.90276917 9.10834045 -7.29722229 9.51439514 -7.70362854 9.93275452 C-8.40487854 10.65462952 -9.10612854 11.37650452 -9.82862854 12.12025452 C-9.82862854 8.12025452 -9.82862854 8.12025452 -7.82862854 6.12025452 C-1.82862854 0.12025452 -1.82862854 0.12025452 0 0 Z " fill="#3BA551" transform="translate(870.8286285400391,401.87974548339844)"/>
<path d="M0 0 C0.99 0.33 1.98 0.66 3 1 C2.23816406 1.63164062 1.47632813 2.26328125 0.69140625 2.9140625 C-6.37314439 8.96725969 -11.50796505 15.13523296 -16.2578125 23.12890625 C-18 26 -18 26 -20 28 C-19.01152386 17.55039514 -9.75500354 7.62057856 -2 1 C-1.34 0.67 -0.68 0.34 0 0 Z " fill="#111D2F" transform="translate(621,462)"/>
<path d="M0 0 C0.33 0.66 0.66 1.32 1 2 C-8.24 2 -17.48 2 -27 2 C-26.67 1.34 -26.34 0.68 -26 0 C-17.91240871 -2.18583548 -8.18226181 -1.54382298 0 0 Z " fill="#18273A" transform="translate(677,449)"/>
<path d="M0 0 C0.66 0 1.32 0 2 0 C0.63218625 7.01904426 -1.50738951 13.4167292 -4.125 20.0625 C-4.49753906 21.02349609 -4.87007812 21.98449219 -5.25390625 22.97460938 C-6.16355485 25.31870383 -7.07898954 27.66035181 -8 30 C-8.33 30 -8.66 30 -9 30 C-9.20797037 25.54596791 -8.63722359 22.31282761 -7.03125 18.1640625 C-6.42216797 16.56884766 -6.42216797 16.56884766 -5.80078125 14.94140625 C-5.37152344 13.84699219 -4.94226563 12.75257813 -4.5 11.625 C-3.85611328 9.94857422 -3.85611328 9.94857422 -3.19921875 8.23828125 C-2.14165918 5.48862637 -1.0750333 2.74285978 0 0 Z " fill="#121E31" transform="translate(138,519)"/>
<path d="M0 0 C0.66 0.33 1.32 0.66 2 1 C1.63648438 1.47421387 1.27296875 1.94842773 0.8984375 2.43701172 C-0.73934936 4.57925793 -2.36973945 6.72702158 -4 8.875 C-4.57234375 9.62136719 -5.1446875 10.36773438 -5.734375 11.13671875 C-6.27578125 11.85214844 -6.8171875 12.56757812 -7.375 13.3046875 C-7.87773438 13.96452637 -8.38046875 14.62436523 -8.8984375 15.30419922 C-10.18158073 16.94250583 -10.18158073 16.94250583 -10 19 C-11.62553283 20.70680947 -13.29115995 22.37660195 -15 24 C-15.99 23.67 -16.98 23.34 -18 23 C-15.93971374 20.2899763 -13.87636827 17.58229646 -11.8125 14.875 C-11.23435547 14.11445312 -10.65621094 13.35390625 -10.06054688 12.5703125 C-6.79901905 8.29531557 -3.47837284 4.1006806 0 0 Z " fill="#1B5E36" transform="translate(747,558)"/>
<path d="M0 0 C0.33 0.66 0.66 1.32 1 2 C8.92 2 16.84 2 25 2 C25 2.66 25 3.32 25 4 C15.43 4.33 5.86 4.66 -4 5 C-3.67 3.68 -3.34 2.36 -3 1 C-2.01 1.33 -1.02 1.66 0 2 C0 1.34 0 0.68 0 0 Z " fill="#07111F" transform="translate(695,545)"/>
<path d="M0 0 C0 6.6 0 13.2 0 20 C-0.66 20.33 -1.32 20.66 -2 21 C-4 19 -4 19 -4.1875 16.625 C-4.02017897 14.28250552 -3.56632068 12.26528271 -3 10 C-3.33 9.67 -3.66 9.34 -4 9 C-4.25 5.5625 -4.25 5.5625 -4 2 C-1 0 -1 0 0 0 Z M-3 3 C-3 4.98 -3 6.96 -3 9 C-2.67 9 -2.34 9 -2 9 C-2 7.02 -2 5.04 -2 3 C-2.33 3 -2.66 3 -3 3 Z " fill="#142235" transform="translate(484,523)"/>
<path d="M0 0 C5.92491232 2.04062805 10.58789015 4.57164342 14 10 C10.95063976 9.41001508 9.14238831 8.51938073 6.75 6.5625 C0.05626886 1.64147308 -7.97177216 1.56079533 -16 1 C-11.02964705 -2.31356863 -5.70240791 -1.00440139 0 0 Z " fill="#111D2F" transform="translate(672,477)"/>
<path d="M0 0 C-4.20017569 2.10008785 -6.68050303 3.12273419 -11.4453125 3.09765625 C-13.05986328 3.09282227 -13.05986328 3.09282227 -14.70703125 3.08789062 C-15.83496094 3.07951172 -16.96289062 3.07113281 -18.125 3.0625 C-19.26066406 3.05798828 -20.39632813 3.05347656 -21.56640625 3.04882812 C-24.37765638 3.03701615 -27.1888023 3.02054507 -30 3 C-30 2.34 -30 1.68 -30 1 C-26.68767894 0.82964947 -23.37512086 0.66440908 -20.0625 0.5 C-19.13630859 0.45230469 -18.21011719 0.40460937 -17.25585938 0.35546875 C-11.49540167 0.0724989 -5.76737595 -0.04732206 0 0 Z " fill="#162336" transform="translate(372,589)"/>
<path d="M0 0 C-0.7734375 0.4125 -1.546875 0.825 -2.34375 1.25 C-10.33431996 5.68041503 -16.88790899 10.33186349 -22 18 C-21.85985505 15.15038603 -21.72973936 12.72835388 -21 10 C-18.9375 8.375 -18.9375 8.375 -16 7 C-13.95331606 5.50965673 -11.96277678 3.95717084 -9.96484375 2.40234375 C-6.35904989 -0.17117513 -4.36423571 -1.55865561 0 0 Z " fill="#111D30" transform="translate(453,454)"/>
<path d="M0 0 C2.32269896 2.32269896 2.87126384 4.03140489 3.9453125 7.12109375 C4.29980469 8.13880859 4.65429688 9.15652344 5.01953125 10.20507812 C5.38433594 11.27177734 5.74914062 12.33847656 6.125 13.4375 C6.49753906 14.50033203 6.87007812 15.56316406 7.25390625 16.65820312 C10 24.60980426 10 24.60980426 10 28 C9.34 28 8.68 28 8 28 C6.65387303 24.27532752 5.32537729 20.54460125 4 16.8125 C3.6184375 15.75740234 3.236875 14.70230469 2.84375 13.61523438 C2.30234375 12.08286133 2.30234375 12.08286133 1.75 10.51953125 C1.24726563 9.11344604 1.24726563 9.11344604 0.734375 7.67895508 C-0.00366501 4.98663027 -0.14089056 2.77598431 0 0 Z " fill="#111D30" transform="translate(206,451)"/>
<path d="M0 0 C0.66 0.33 1.32 0.66 2 1 C-0.22198448 4.06776922 -2.45384599 7.12821963 -4.6875 10.1875 C-5.31333984 11.05181641 -5.93917969 11.91613281 -6.58398438 12.80664062 C-9.80760733 17.21169607 -12.98638109 21.29335003 -17 25 C-15.45262907 20.42704346 -13.00531581 16.91780322 -10.1875 13.0625 C-9.76146484 12.46759766 -9.33542969 11.87269531 -8.89648438 11.25976562 C-6.08353899 7.36590023 -3.11172048 3.65920451 0 0 Z " fill="#1F782A" transform="translate(841,437)"/>
<path d="M0 0 C0.66 0.33 1.32 0.66 2 1 C-0.24039065 4.11120596 -2.49393373 7.21264705 -4.75 10.3125 C-5.38421875 11.19357422 -6.0184375 12.07464844 -6.671875 12.98242188 C-7.6 14.25375977 -7.6 14.25375977 -8.546875 15.55078125 C-9.11245117 16.33106689 -9.67802734 17.11135254 -10.26074219 17.9152832 C-12.00382361 20.00458307 -13.7623545 21.4675129 -16 23 C-14.7309396 19.50140609 -13.27609752 16.76418237 -10.99609375 13.828125 C-10.42052734 13.08175781 -9.84496094 12.33539062 -9.25195312 11.56640625 C-8.35379883 10.41978516 -8.35379883 10.41978516 -7.4375 9.25 C-6.83486328 8.47011719 -6.23222656 7.69023438 -5.61132812 6.88671875 C-1.2237874 1.2237874 -1.2237874 1.2237874 0 0 Z " fill="#1A602F" transform="translate(765,534)"/>
<path d="M0 0 C0.680625 0.70125 1.36125 1.4025 2.0625 2.125 C3.03809486 3.08696923 4.01757704 4.04500509 5 5 C5.76183594 5.75603516 5.76183594 5.75603516 6.5390625 6.52734375 C11.16640585 10.83669431 16.05247454 12.96563515 22 15 C22 15.33 22 15.66 22 16 C16.42947855 16.87955602 12.95487414 14.68365844 8.4140625 11.7890625 C5.0795996 9.31789097 2.13742954 6.58844879 0 3 C0 2.01 0 1.02 0 0 Z " fill="#0E1828" transform="translate(313,573)"/>
<path d="M0 0 C0.33 0 0.66 0 1 0 C2.75 18.75 2.75 18.75 1 24 C0.34 24 -0.32 24 -1 24 C-1.02887236 20.18751574 -1.04675492 16.3750593 -1.0625 12.5625 C-1.07087891 11.47388672 -1.07925781 10.38527344 -1.08789062 9.26367188 C-1.09111328 8.22919922 -1.09433594 7.19472656 -1.09765625 6.12890625 C-1.10289307 5.17056885 -1.10812988 4.21223145 -1.11352539 3.22485352 C-1 1 -1 1 0 0 Z " fill="#0B1726" transform="translate(375,560)"/>
<path d="M0 0 C0.66 0.33 1.32 0.66 2 1 C-0.01292065 6.70327518 -2.06324059 9.2722429 -7 13 C-8.35099103 14.31543863 -9.69205669 15.64175118 -11 17 C-10.4365584 12.84461818 -7.9997581 10.0203939 -5.5 6.8125 C-5.08363281 6.26658203 -4.66726563 5.72066406 -4.23828125 5.15820312 C-1.23028274 1.23028274 -1.23028274 1.23028274 0 0 Z " fill="#2A8838" transform="translate(861,410)"/>
<path d="M0 0 C3.17018025 3.17018025 4.1605193 7.27884916 5.6875 11.4375 C6.02072266 12.30955078 6.35394531 13.18160156 6.69726562 14.08007812 C7.00728516 14.91861328 7.31730469 15.75714844 7.63671875 16.62109375 C8.06537231 17.77242798 8.06537231 17.77242798 8.50268555 18.94702148 C9 21 9 21 8 24 C5.51373257 20.1502956 3.85897626 16.30969959 2.3125 12 C1.87550781 10.80375 1.43851563 9.6075 0.98828125 8.375 C0.10116049 5.34546506 -0.21866635 3.12042785 0 0 Z " fill="#142033" transform="translate(220,490)"/>
<path d="M0 0 C0.66 0 1.32 0 2 0 C-0.03863617 8.27056461 -2.82287673 16.10114411 -6 24 C-6.33 24 -6.66 24 -7 24 C-6.46870624 18.02798909 -5.15389059 13.05383257 -2.9375 7.5 C-2.65583984 6.77296875 -2.37417969 6.0459375 -2.08398438 5.296875 C-1.39741552 3.52808745 -0.69986318 1.76356959 0 0 Z " fill="#131F33" transform="translate(168,437)"/>
<path d="M0 0 C3.87983171 2.58655448 4.66952153 5.60338933 6.1875 9.8125 C6.46013672 10.52470703 6.73277344 11.23691406 7.01367188 11.97070312 C8.41441762 15.76570602 9.36332101 18.8904357 9 23 C5.85134256 19.37857117 4.43146779 15.37866843 2.8125 10.9375 C2.53986328 10.21755859 2.26722656 9.49761719 1.98632812 8.75585938 C0.8591815 5.71341098 0 3.27011542 0 0 Z " fill="#101C2F" transform="translate(240,439)"/>
<path d="M0 0 C3.87983171 2.58655448 4.66952153 5.60338933 6.1875 9.8125 C6.46013672 10.52470703 6.73277344 11.23691406 7.01367188 11.97070312 C8.41441762 15.76570602 9.36332101 18.8904357 9 23 C6.34434598 19.8525582 5.14763405 16.91946252 3.9375 13 C2.64529475 8.81007934 2.64529475 8.81007934 0.87890625 4.8125 C0 3 0 3 0 0 Z " fill="#101D2F" transform="translate(250,466)"/>
<path d="M0 0 C7.26 0 14.52 0 22 0 C18.95283142 3.04716858 15.87532802 3.15030792 11.6875 3.1875 C7.45156014 3.15243427 3.99836961 2.3611471 0 1 C0 0.67 0 0.34 0 0 Z " fill="#101D30" transform="translate(654,562)"/>
<path d="M0 0 C0.33 0.66 0.66 1.32 1 2 C-3.62 8.27 -8.24 14.54 -13 21 C-13.33 20.01 -13.66 19.02 -14 18 C-12.51194605 15.73958939 -11.01612622 13.71164839 -9.3125 11.625 C-8.86455078 11.06039063 -8.41660156 10.49578125 -7.95507812 9.9140625 C-6.64629323 8.26807975 -5.32450782 6.63334132 -4 5 C-2.66639426 3.33355129 -1.33295261 1.66697118 0 0 Z " fill="#1E7328" transform="translate(882,449)"/>
<path d="M0 0 C0.66 0 1.32 0 2 0 C0.57142347 3.36048572 -1.16054598 5.27725861 -3.9375 7.625 C-4.62714844 8.21539063 -5.31679688 8.80578125 -6.02734375 9.4140625 C-8 11 -8 11 -11 13 C-13.1875 12.625 -13.1875 12.625 -15 12 C-14.33613281 11.55269531 -13.67226563 11.10539063 -12.98828125 10.64453125 C-7.18087576 6.73534627 -7.18087576 6.73534627 -2 2.0625 C-1.34 1.381875 -0.68 0.70125 0 0 Z " fill="#13222E" transform="translate(712,571)"/>
<path d="M0 0 C2.62714298 2.34374855 4.03210328 4.71825693 5.5625 7.875 C6.18318359 9.13957031 6.18318359 9.13957031 6.81640625 10.4296875 C7.96521211 12.92445402 9.00467741 15.44059905 10 18 C9.34 18 8.68 18 8 18 C6.5625 15.953125 6.5625 15.953125 5 13.25 C4.484375 12.36828125 3.96875 11.4865625 3.4375 10.578125 C2.963125 9.72734375 2.48875 8.8765625 2 8 C1.4121875 6.97132813 1.4121875 6.97132813 0.8125 5.921875 C0 4 0 4 0 0 Z " fill="#111E2F" transform="translate(599,550)"/>
<path d="M0 0 C0.66 0 1.32 0 2 0 C2.84334329 2.22582389 3.67478551 4.45496026 4.5 6.6875 C4.73847656 7.31333984 4.97695313 7.93917969 5.22265625 8.58398438 C6.5412725 12.18192299 7.29329235 15.16520253 7 19 C5 18 5 18 3.7109375 14.7265625 C3.25783875 13.36193566 2.81286206 11.9945918 2.375 10.625 C2.14554687 9.93921875 1.91609375 9.2534375 1.6796875 8.546875 C0.71204999 5.586365 0 3.13391543 0 0 Z " fill="#101C2F" transform="translate(264,503)"/>
<path d="M0 0 C0.33 0.99 0.66 1.98 1 3 C0.13549805 4.7175293 0.13549805 4.7175293 -1.23828125 6.57421875 C-1.72876953 7.24130859 -2.21925781 7.90839844 -2.72460938 8.59570312 C-3.24861328 9.28599609 -3.77261719 9.97628906 -4.3125 10.6875 C-4.82490234 11.38939453 -5.33730469 12.09128906 -5.86523438 12.81445312 C-8.71032933 16.6314058 -8.71032933 16.6314058 -10 18 C-10.66 18 -11.32 18 -12 18 C-10.46906512 13.32800909 -7.89242605 9.97829995 -4.875 6.1875 C-4.40707031 5.59001953 -3.93914063 4.99253906 -3.45703125 4.37695312 C-2.30994435 2.91383208 -1.15568766 1.45633703 0 0 Z " fill="#20762D" transform="translate(866,470)"/>
<path d="M0 0 C0.33 0 0.66 0 1 0 C0.48378772 6.83981276 -1.48590969 12.63876684 -4 19 C-4.66 19 -5.32 19 -6 19 C-4.70024676 12.28460827 -2.70071112 6.27980887 0 0 Z " fill="#0F1A2E" transform="translate(192,480)"/>
<path d="M0 0 C0.99 0.33 1.98 0.66 3 1 C0.69 3.97 -1.62 6.94 -4 10 C-3.01 10 -2.02 10 -1 10 C-1 10.66 -1 11.32 -1 12 C-3.31 12 -5.62 12 -8 12 C-5.6163187 7.65829477 -3.21880117 3.7935871 0 0 Z " fill="#207D57" transform="translate(709,611)"/>
<path d="M0 0 C4.09480199 3.74381897 7.7448683 7.8668907 10 13 C9.67 13.99 9.34 14.98 9 16 C6.12022113 14.56011056 5.45291875 12.49865762 3.9375 9.6875 C3.41027344 8.72199219 2.88304687 7.75648438 2.33984375 6.76171875 C1.22073442 4.45498319 0.48109231 2.50049214 0 0 Z " fill="#217030" transform="translate(901,593)"/>
<path d="M0 0 C3.11494689 2.56157524 3.98547054 5.27219254 5.1875 9.0625 C5.70376953 10.65771484 5.70376953 10.65771484 6.23046875 12.28515625 C7 15 7 15 7 17 C6.01 16.67 5.02 16.34 4 16 C3.8046875 13.94921875 3.609375 11.8984375 3.4140625 9.84765625 C3.20910156 8.93306641 3.20910156 8.93306641 3 8 C2.34 7.67 1.68 7.34 1 7 C0.59270772 4.67843403 0.25561323 2.3431213 0 0 Z " fill="#132032" transform="translate(687,489)"/>
<path d="M0 0 C0.33 0 0.66 0 1 0 C2.10087193 7.01805857 2.09733092 13.90565767 2 21 C-0.6484945 18.34453578 -1.00329597 16.96127238 -1.328125 13.14453125 C-1.31755441 11.70032472 -1.29106414 10.25616131 -1.25 8.8125 C-1.24226563 7.70745117 -1.24226563 7.70745117 -1.234375 6.58007812 C-1.15451389 1.15451389 -1.15451389 1.15451389 0 0 Z " fill="#0A1426" transform="translate(482,559)"/>
<path d="M0 0 C0.66 0 1.32 0 2 0 C2.36351562 0.77923828 2.36351562 0.77923828 2.734375 1.57421875 C4.7818547 5.8345515 6.98061973 9.33360968 10 13 C10 13.66 10 14.32 10 15 C6.42910719 13.8097024 5.90176928 12.82580061 3.875 9.75 C3.35679687 8.98171875 2.83859375 8.2134375 2.3046875 7.421875 C0.95355597 4.91378654 0.40782765 2.80505847 0 0 Z " fill="#0F1B2E" transform="translate(635,542)"/>
<path d="M0 0 C0.33 0.99 0.66 1.98 1 3 C-0.33918294 5.2132072 -1.67534522 7.15576458 -3.25 9.1875 C-3.65863281 9.74630859 -4.06726563 10.30511719 -4.48828125 10.88085938 C-5.703125 12.48046875 -5.703125 12.48046875 -8 15 C-8.99 15 -9.98 15 -11 15 C-7.37 10.05 -3.74 5.1 0 0 Z " fill="#1B5F31" transform="translate(761,606)"/>
<path d="M0 0 C0.66 0 1.32 0 2 0 C0.90301833 5.69139902 -0.54053077 10.74567937 -3 16 C-3.33 16 -3.66 16 -4 16 C-3.47606294 10.13190493 -2.23891142 5.45126259 0 0 Z " fill="#111C30" transform="translate(149,489)"/>
<path d="M0 0 C0.33 0.99 0.66 1.98 1 3 C-0.33918294 5.2132072 -1.67534522 7.15576458 -3.25 9.1875 C-3.65863281 9.74630859 -4.06726563 10.30511719 -4.48828125 10.88085938 C-5.703125 12.48046875 -5.703125 12.48046875 -8 15 C-8.99 15 -9.98 15 -11 15 C-7.37 10.05 -3.74 5.1 0 0 Z " fill="#1F7428" transform="translate(912,408)"/>
<path d="M0 0 C0.66 0 1.32 0 2 0 C2.5775 1.11375 3.155 2.2275 3.75 3.375 C5.42260202 6.33192143 6.64982242 7.92315721 10 9 C10 9.66 10 10.32 10 11 C7.19294916 10.91979855 5.51793117 10.54452763 3.5546875 8.48046875 C0 3.65625 0 3.65625 0 0 Z " fill="#121E30" transform="translate(346,550)"/>
<path d="M0 0 C0.99 0.33 1.98 0.66 3 1 C-0.96570677 5.38808974 -4.01191871 8.68554313 -10 10 C-6.66666667 6.66666667 -3.33333333 3.33333333 0 0 Z " fill="#122031" transform="translate(687,552)"/>
<path d="M0 0 C0.66 0 1.32 0 2 0 C2.67756882 1.55780332 3.34159457 3.12150096 4 4.6875 C4.37125 5.55761719 4.7425 6.42773438 5.125 7.32421875 C6.01870488 10.0572002 6.16449676 12.14700934 6 15 C3.08691178 13.54345589 2.94547684 11.64612352 1.875 8.625 C1.52179688 7.64789063 1.16859375 6.67078125 0.8046875 5.6640625 C0 3 0 3 0 0 Z " fill="#131F32" transform="translate(231,414)"/>
<path d="M0 0 C0.99 0 1.98 0 3 0 C3 0.66 3 1.32 3 2 C1.5727568 3.22809298 0.13961383 4.45048041 -1.33203125 5.625 C-3.72447313 7.59722375 -5.84062716 9.77711619 -8 12 C-8 8 -8 8 -6 6 C-4 4 -2 2 0 0 Z " fill="#359D4A" transform="translate(869,402)"/>
<path d="M0 0 C4.95 0 9.9 0 15 0 C14.67 0.66 14.34 1.32 14 2 C11.6015625 2.51953125 11.6015625 2.51953125 8.625 2.8125 C7.64789063 2.92207031 6.67078125 3.03164063 5.6640625 3.14453125 C3 3 3 3 0 0 Z " fill="#0D1A30" transform="translate(345,479)"/>
<path d="M0 0 C6.16456078 0.38528505 9.98627748 2.47086025 15 6 C14.34 6.66 13.68 7.32 13 8 C12.48050781 7.66226562 11.96101562 7.32453125 11.42578125 6.9765625 C7.71151993 4.60108299 4.19599085 2.44237185 0 1 C0 0.67 0 0.34 0 0 Z " fill="#0F1D2E" transform="translate(688,454)"/>
<path d="M0 0 C2 2 2 2 2.1953125 3.9453125 C2.13020833 5.96354167 2.06510417 7.98177083 2 10 C0.68 10 -0.64 10 -2 10 C-2 8.68 -2 7.36 -2 6 C-1.34 6 -0.68 6 0 6 C-0.2784375 4.7934375 -0.2784375 4.7934375 -0.5625 3.5625 C-0.706875 2.716875 -0.85125 1.87125 -1 1 C-0.67 0.67 -0.34 0.34 0 0 Z M-1 7 C0 9 0 9 0 9 Z " fill="#162436" transform="translate(482,578)"/>
<path d="M0 0 C0.33 0 0.66 0 1 0 C0.67 3.96 0.34 7.92 0 12 C-0.99 12 -1.98 12 -3 12 C-2.49202991 7.6822542 -1.80317221 3.96697886 0 0 Z " fill="#101F32" transform="translate(635,496)"/>
<path d="M0 0 C1.69057475 3.38114949 2.45815467 5.6299825 3.125 9.25 C3.29257812 10.14203125 3.46015625 11.0340625 3.6328125 11.953125 C3.75398438 12.62859375 3.87515625 13.3040625 4 14 C3.34 14 2.68 14 2 14 C2 13.34 2 12.68 2 12 C1.34 11.67 0.68 11.34 0 11 C0 7.37 0 3.74 0 0 Z " fill="#101A2B" transform="translate(309,558)"/>
<path d="M0 0 C3.28426103 1.05565533 4.57151556 2.61660352 6.25 5.5 C8 9 8 9 8 11 C7.34 11 6.68 11 6 11 C4.4921875 9.1015625 4.4921875 9.1015625 2.875 6.625 C2.33617187 5.81289063 1.79734375 5.00078125 1.2421875 4.1640625 C0 2 0 2 0 0 Z " fill="#217531" transform="translate(844,503)"/>
<path d="M0 0 C0.33 0 0.66 0 1 0 C0.52060632 4.71403788 0.03165952 8.66579301 -2 13 C-2.66 13 -3.32 13 -4 13 C-3.52343588 11.20763933 -3.04366502 9.41613103 -2.5625 7.625 C-2.29566406 6.62726563 -2.02882812 5.62953125 -1.75390625 4.6015625 C-1 2 -1 2 0 0 Z " fill="#0F1A2D" transform="translate(185,500)"/>
<path d="M0 0 C-1.78614318 1.03046722 -3.57910018 2.04913236 -5.375 3.0625 C-6.87160156 3.91521484 -6.87160156 3.91521484 -8.3984375 4.78515625 C-9.25695312 5.18605469 -10.11546875 5.58695312 -11 6 C-11.66 5.67 -12.32 5.34 -13 5 C-9.44809236 0.85610776 -5.36327214 -1.71439369 0 0 Z " fill="#0F1B2C" transform="translate(638,455)"/>
<path d="M0 0 C3.69790046 1.23263349 3.9354846 2.20052451 5.6875 5.5625 C6.12449219 6.38878906 6.56148437 7.21507812 7.01171875 8.06640625 C7.33785156 8.70449219 7.66398438 9.34257813 8 10 C7.34 10.66 6.68 11.32 6 12 C4.99466333 10.37829621 3.99588093 8.75252763 3 7.125 C2.443125 6.22007812 1.88625 5.31515625 1.3125 4.3828125 C0 2 0 2 0 0 Z " fill="#1F6B31" transform="translate(845,596)"/>
<path d="M0 0 C2.03819846 2.03819846 2.67841059 3.29417798 3.6875 5.9375 C3.95949219 6.62714844 4.23148438 7.31679688 4.51171875 8.02734375 C5 10 5 10 4 13 C0.88303339 8.66335081 0.44033187 5.19591612 0 0 Z " fill="#0E182A" transform="translate(224,501)"/>
<path d="M0 0 C4.51478398 0.53115106 7.34666857 2.36620292 11 5 C10.67 5.99 10.34 6.98 10 8 C6.66666667 5.33333333 3.33333333 2.66666667 0 0 Z " fill="#121E30" transform="translate(465,482)"/>
<path d="M0 0 C2.33333333 2.33333333 4.66666667 4.66666667 7 7 C6.67 7.99 6.34 8.98 6 10 C4.99106869 8.90398831 3.99311775 7.79786082 3 6.6875 C2.1646875 5.76517578 2.1646875 5.76517578 1.3125 4.82421875 C0 3 0 3 0 0 Z " fill="#131F31" transform="translate(313,573)"/>
<path d="M0 0 C0.99 0.33 1.98 0.66 3 1 C2.01 4.3 1.02 7.6 0 11 C-0.66 11 -1.32 11 -2 11 C-1.34 7.37 -0.68 3.74 0 0 Z " fill="#132134" transform="translate(168,549)"/>
<path d="M0 0 C0.33 0 0.66 0 1 0 C0.14285714 8.57142857 0.14285714 8.57142857 -2 12 C-2.66 12 -3.32 12 -4 12 C-3.52309796 10.37433394 -3.04340334 8.74948689 -2.5625 7.125 C-2.29566406 6.22007812 -2.02882812 5.31515625 -1.75390625 4.3828125 C-1 2 -1 2 0 0 Z " fill="#0E1829" transform="translate(197,466)"/>
<path d="M0 0 C0.66 0.33 1.32 0.66 2 1 C0.515 6.445 0.515 6.445 -1 12 C-1.66 12 -2.32 12 -3 12 C-2.40075776 7.80530429 -1.42500059 3.99000166 0 0 Z " fill="#0F1C2F" transform="translate(203,448)"/>
<path d="M0 0 C0.33 0.99 0.66 1.98 1 3 C-2.3 3 -5.6 3 -9 3 C-7.14340032 -0.71319936 -3.69365381 -0.09982848 0 0 Z " fill="#227A2D" transform="translate(913,399)"/>
<path d="M0 0 C1.32 0 2.64 0 4 0 C2.33248852 3.94139078 -0.22710649 6.7892812 -3 10 C-3 6.42003353 -2.07454637 5.76606183 0 3 C0 2.01 0 1.02 0 0 Z " fill="#237D51" transform="translate(748,556)"/>
<path d="M0 0 C3.37331354 2.24887569 3.8358179 3.2387963 5 7 C5 8.32 5 9.64 5 11 C4.34 11 3.68 11 3 11 C2.01 7.37 1.02 3.74 0 0 Z " fill="#0E192C" transform="translate(259,490)"/>
<path d="M0 0 C0.33 0.99 0.66 1.98 1 3 C-0.21484375 4.82421875 -0.21484375 4.82421875 -1.9375 6.6875 C-2.50339844 7.31011719 -3.06929687 7.93273437 -3.65234375 8.57421875 C-4.09707031 9.04472656 -4.54179688 9.51523437 -5 10 C-5.66 9.67 -6.32 9.34 -7 9 C-4.69 6.03 -2.38 3.06 0 0 Z " fill="#1E722B" transform="translate(852,489)"/>
<path d="M0 0 C1.39195915 4.17587745 -0.17676781 6.13474776 -2 10 C-2.66 9.67 -3.32 9.34 -4 9 C-2.25 2.25 -2.25 2.25 0 0 Z " fill="#132033" transform="translate(156,473)"/>
<path d="M0 0 C0.33 0.99 0.66 1.98 1 3 C-0.21484375 4.82421875 -0.21484375 4.82421875 -1.9375 6.6875 C-2.50339844 7.31011719 -3.06929687 7.93273437 -3.65234375 8.57421875 C-4.09707031 9.04472656 -4.54179688 9.51523437 -5 10 C-5.66 9.67 -6.32 9.34 -7 9 C-4.69 6.03 -2.38 3.06 0 0 Z " fill="#1E7126" transform="translate(899,426)"/>
<path d="M0 0 C1.65 0 3.3 0 5 0 C6.60355101 3.50776784 7.22036864 6.14354879 7 10 C4.90250005 7.64031256 4.03094296 6.45383006 3.8125 3.25 C3.9053125 2.13625 3.9053125 2.13625 4 1 C2.68 0.67 1.36 0.34 0 0 Z " fill="#152236" transform="translate(224,403)"/>
<path d="M0 0 C2.83374881 3.20336822 3.5205537 5.78087253 4 10 C1 8 1 8 0.48828125 6.0546875 C0.32552083 4.03645833 0.16276042 2.01822917 0 0 Z " fill="#0D1727" transform="translate(243,557)"/>
<path d="M0 0 C0.66 0.33 1.32 0.66 2 1 C-0.97 4.96 -0.97 4.96 -4 9 C-4.33 8.01 -4.66 7.02 -5 6 C-3.59554165 3.7363436 -1.8032087 1.9791315 0 0 Z " fill="#1C7325" transform="translate(855,418)"/>
<path d="M0 0 C2.0625 0.4375 2.0625 0.4375 4 1 C3.01 2.98 2.02 4.96 1 7 C0.34 7 -0.32 7 -1 7 C-0.34 5.35 0.32 3.7 1 2 C0.34 1.67 -0.32 1.34 -1 1 C-0.67 0.67 -0.34 0.34 0 0 Z " fill="#2B7B32" transform="translate(916,399)"/>
<path d="M0 0 C0.99 0.33 1.98 0.66 3 1 C0.525 4.465 0.525 4.465 -2 8 C-2.33 6.68 -2.66 5.36 -3 4 C-1.5625 1.75 -1.5625 1.75 0 0 Z " fill="#226C39" transform="translate(780,579)"/>
<path d="M0 0 C0 1.65 0 3.3 0 5 C-0.66 5 -1.32 5 -2 5 C-2.66 6.32 -3.32 7.64 -4 9 C-4.1875 5.625 -4.1875 5.625 -4 2 C-1 0 -1 0 0 0 Z " fill="#192940" transform="translate(484,523)"/>
<path d="M0 0 C2.97 0.33 5.94 0.66 9 1 C8.34 1.66 7.68 2.32 7 3 C3.375 2.625 3.375 2.625 0 2 C0 1.34 0 0.68 0 0 Z " fill="#132137" transform="translate(368,479)"/>
<path d="M0 0 C2.79872437 2.52788007 4.45773019 4.20411134 5 8 C2 7 2 7 0.8125 5.125 C0 3 0 3 0 0 Z " fill="#152336" transform="translate(510,465)"/>
<path d="M0 0 C1.65 0 3.3 0 5 0 C5 0.33 5 0.66 5 1 C3.35 1 1.7 1 0 1 C0 0.67 0 0.34 0 0 Z " fill="#32495D" transform="translate(425,591)"/>
<path d="M0 0 C0.33 0 0.66 0 1 0 C1 1.65 1 3.3 1 5 C0.67 5 0.34 5 0 5 C0 3.35 0 1.7 0 0 Z " fill="#2B425A" transform="translate(480,547)"/>
<path d="M0 0 C1.485 0.99 1.485 0.99 3 2 C2.01 2 1.02 2 0 2 C0 1.34 0 0.68 0 0 Z " fill="#33485E" transform="translate(112,590)"/>
<path d="M0 0 C0.66 0.66 1.32 1.32 2 2 C1.01 1.67 0.02 1.34 -1 1 C-0.67 0.67 -0.34 0.34 0 0 Z " fill="#45905B" transform="translate(729,408)"/>
<path d="" fill="#2C435B" transform="translate(0,0)"/>
<path d="" fill="#2D455D" transform="translate(0,0)"/>
<path d="M0 0 C0.66 0 1.32 0 2 0 C1.67 0.66 1.34 1.32 1 2 C0.67 1.34 0.34 0.68 0 0 Z " fill="#2C445D" transform="translate(592,538)"/>
<path d="" fill="#388B52" transform="translate(0,0)"/>
<path d="M0 0 C2 1 2 1 2 1 Z " fill="#31475D" transform="translate(325,591)"/>
<path d="M0 0 C2 1 2 1 2 1 Z " fill="#2F465D" transform="translate(264,591)"/>
<path d="M0 0 C2 1 2 1 2 1 Z " fill="#2D4358" transform="translate(153,591)"/>
<path d="M0 0 C2 1 2 1 2 1 Z " fill="#31475C" transform="translate(117,591)"/>
<path d="" fill="#2F485D" transform="translate(0,0)"/>
<path d="" fill="#2E4359" transform="translate(0,0)"/>
<path d="" fill="#2B4158" transform="translate(0,0)"/>
<path d="" fill="#294058" transform="translate(0,0)"/>
<path d="" fill="#2C415B" transform="translate(0,0)"/>
<path d="" fill="#2C435C" transform="translate(0,0)"/>
<path d="" fill="#2D435C" transform="translate(0,0)"/>
<path d="" fill="#3A8D57" transform="translate(0,0)"/>
<path d="" fill="#2B4259" transform="translate(0,0)"/>
<path d="" fill="#2C425C" transform="translate(0,0)"/>
<path d="" fill="#2A425B" transform="translate(0,0)"/>
<path d="" fill="#2E445D" transform="translate(0,0)"/>
<path d="" fill="#3F9659" transform="translate(0,0)"/>
<path d="M0 0 C2 1 2 1 2 1 Z " fill="#2C4459" transform="translate(662,479)"/>
<path d="" fill="#2B425D" transform="translate(0,0)"/>
<path d="M0 0 C2 1 2 1 2 1 Z " fill="#324D5D" transform="translate(677,448)"/>
<path d="M0 0 C2 1 2 1 2 1 Z " fill="#45A153" transform="translate(840,433)"/>
<path d="" fill="#535553" transform="translate(0,0)"/>
<path d="" fill="#3A8652" transform="translate(0,0)"/>
<path d="" fill="#388E52" transform="translate(0,0)"/>
<path d="" fill="#378D53" transform="translate(0,0)"/>
<path d="" fill="#38535E" transform="translate(0,0)"/>
<path d="" fill="#378556" transform="translate(0,0)"/>
<path d="" fill="#344D5C" transform="translate(0,0)"/>
<path d="" fill="#334B62" transform="translate(0,0)"/>
<path d="" fill="#334A62" transform="translate(0,0)"/>
<path d="" fill="#2E495F" transform="translate(0,0)"/>
<path d="" fill="#334B5F" transform="translate(0,0)"/>
<path d="" fill="#324C63" transform="translate(0,0)"/>
<path d="" fill="#2D3F55" transform="translate(0,0)"/>
<path d="" fill="#2F455F" transform="translate(0,0)"/>
<path d="" fill="#2E455F" transform="translate(0,0)"/>
<path d="" fill="#2F485F" transform="translate(0,0)"/>
<path d="" fill="#2F4759" transform="translate(0,0)"/>
<path d="" fill="#30475F" transform="translate(0,0)"/>
<path d="" fill="#354B5C" transform="translate(0,0)"/>
<path d="" fill="#2F485A" transform="translate(0,0)"/>
<path d="" fill="#33495E" transform="translate(0,0)"/>
<path d="" fill="#32475D" transform="translate(0,0)"/>
<path d="" fill="#2B435A" transform="translate(0,0)"/>
<path d="" fill="#354757" transform="translate(0,0)"/>
<path d="" fill="#35505C" transform="translate(0,0)"/>
<path d="" fill="#314B5D" transform="translate(0,0)"/>
<path d="" fill="#2E435C" transform="translate(0,0)"/>
<path d="" fill="#3A8B51" transform="translate(0,0)"/>
<path d="" fill="#304B5D" transform="translate(0,0)"/>
<path d="" fill="#2E415A" transform="translate(0,0)"/>
<path d="" fill="#2C465B" transform="translate(0,0)"/>
<path d="" fill="#398F58" transform="translate(0,0)"/>
<path d="" fill="#2F4557" transform="translate(0,0)"/>
<path d="" fill="#2D435B" transform="translate(0,0)"/>
<path d="" fill="#3B8E53" transform="translate(0,0)"/>
<path d="" fill="#2D445B" transform="translate(0,0)"/>
<path d="" fill="#3A8D53" transform="translate(0,0)"/>
<path d="" fill="#3A8A56" transform="translate(0,0)"/>
<path d="" fill="#2B4259" transform="translate(0,0)"/>
<path d="" fill="#2B4059" transform="translate(0,0)"/>
<path d="" fill="#315159" transform="translate(0,0)"/>
<path d="" fill="#2B405A" transform="translate(0,0)"/>
<path d="" fill="#2C4159" transform="translate(0,0)"/>
<path d="" fill="#294059" transform="translate(0,0)"/>
<path d="" fill="#387B58" transform="translate(0,0)"/>
<path d="" fill="#3D9055" transform="translate(0,0)"/>
<path d="" fill="#2D455B" transform="translate(0,0)"/>
<path d="" fill="#2D485D" transform="translate(0,0)"/>
<path d="" fill="#2E455E" transform="translate(0,0)"/>
<path d="" fill="#293F58" transform="translate(0,0)"/>
<path d="" fill="#398E53" transform="translate(0,0)"/>
<path d="" fill="#2E4558" transform="translate(0,0)"/>
<path d="" fill="#2C435C" transform="translate(0,0)"/>
<path d="" fill="#2D445B" transform="translate(0,0)"/>
<path d="" fill="#3B9157" transform="translate(0,0)"/>
<path d="" fill="#2D425A" transform="translate(0,0)"/>
<path d="" fill="#2B3F58" transform="translate(0,0)"/>
<path d="" fill="#2E455C" transform="translate(0,0)"/>
<path d="" fill="#314657" transform="translate(0,0)"/>
<path d="" fill="#2B455B" transform="translate(0,0)"/>
<path d="" fill="#2C425B" transform="translate(0,0)"/>
<path d="" fill="#2F4B5C" transform="translate(0,0)"/>
<path d="" fill="#33545D" transform="translate(0,0)"/>
<path d="" fill="#398A54" transform="translate(0,0)"/>
<path d="" fill="#2F455E" transform="translate(0,0)"/>
<path d="" fill="#2C445A" transform="translate(0,0)"/>
<path d="" fill="#3A8656" transform="translate(0,0)"/>
<path d="" fill="#2C465F" transform="translate(0,0)"/>
<path d="" fill="#2D475D" transform="translate(0,0)"/>
<path d="" fill="#2E4760" transform="translate(0,0)"/>
<path d="" fill="#2C435B" transform="translate(0,0)"/>
<path d="" fill="#2E4760" transform="translate(0,0)"/>
<path d="" fill="#418F55" transform="translate(0,0)"/>
<path d="" fill="#2D465E" transform="translate(0,0)"/>
<path d="" fill="#3F9454" transform="translate(0,0)"/>
<path d="" fill="#2B425B" transform="translate(0,0)"/>
<path d="" fill="#2B425E" transform="translate(0,0)"/>
<path d="" fill="#2B4259" transform="translate(0,0)"/>
<path d="" fill="#2C415C" transform="translate(0,0)"/>
<path d="" fill="#294058" transform="translate(0,0)"/>
<path d="" fill="#2D435B" transform="translate(0,0)"/>
<path d="" fill="#2B415D" transform="translate(0,0)"/>
<path d="" fill="#2C415B" transform="translate(0,0)"/>
<path d="" fill="#429A52" transform="translate(0,0)"/>
<path d="" fill="#2B465C" transform="translate(0,0)"/>
<path d="" fill="#2C445C" transform="translate(0,0)"/>
<path d="" fill="#30465F" transform="translate(0,0)"/>
<path d="" fill="#2B435B" transform="translate(0,0)"/>
<path d="" fill="#2E435F" transform="translate(0,0)"/>
<path d="" fill="#2E475E" transform="translate(0,0)"/>
<path d="" fill="#2D445F" transform="translate(0,0)"/>
<path d="" fill="#293F5A" transform="translate(0,0)"/>
<path d="" fill="#2C405A" transform="translate(0,0)"/>
<path d="" fill="#2E455D" transform="translate(0,0)"/>
<path d="" fill="#2D445A" transform="translate(0,0)"/>
<path d="" fill="#2D455B" transform="translate(0,0)"/>
<path d="" fill="#2D455C" transform="translate(0,0)"/>
<path d="" fill="#2F455E" transform="translate(0,0)"/>
<path d="" fill="#2D435C" transform="translate(0,0)"/>
<path d="" fill="#2C435A" transform="translate(0,0)"/>
<path d="" fill="#2C455D" transform="translate(0,0)"/>
<path d="" fill="#2F475D" transform="translate(0,0)"/>
<path d="" fill="#2D435B" transform="translate(0,0)"/>
<path d="" fill="#2D455C" transform="translate(0,0)"/>
<path d="" fill="#2C435C" transform="translate(0,0)"/>
<path d="" fill="#31465E" transform="translate(0,0)"/>
<path d="" fill="#334762" transform="translate(0,0)"/>
<path d="" fill="#294156" transform="translate(0,0)"/>
<path d="" fill="#3F8F57" transform="translate(0,0)"/>
<path d="" fill="#2C415C" transform="translate(0,0)"/>
<path d="" fill="#2F485E" transform="translate(0,0)"/>
<path d="" fill="#2C435D" transform="translate(0,0)"/>
<path d="" fill="#449B53" transform="translate(0,0)"/>
<path d="" fill="#3F9153" transform="translate(0,0)"/>
<path d="" fill="#2F465B" transform="translate(0,0)"/>
<path d="" fill="#2C425B" transform="translate(0,0)"/>
<path d="" fill="#304761" transform="translate(0,0)"/>
<path d="" fill="#469E55" transform="translate(0,0)"/>
<path d="" fill="#274159" transform="translate(0,0)"/>
<path d="" fill="#2E465E" transform="translate(0,0)"/>
<path d="" fill="#33495D" transform="translate(0,0)"/>
<path d="" fill="#304860" transform="translate(0,0)"/>
<path d="" fill="#439058" transform="translate(0,0)"/>
<path d="" fill="#324B61" transform="translate(0,0)"/>
<path d="" fill="#2D445F" transform="translate(0,0)"/>
<path d="" fill="#2E465E" transform="translate(0,0)"/>
<path d="" fill="#2D4461" transform="translate(0,0)"/>
<path d="" fill="#42955A" transform="translate(0,0)"/>
<path d="" fill="#409257" transform="translate(0,0)"/>
<path d="" fill="#31465E" transform="translate(0,0)"/>
<path d="" fill="#449359" transform="translate(0,0)"/>
<path d="" fill="#385760" transform="translate(0,0)"/>
<path d="" fill="#2E445C" transform="translate(0,0)"/>
<path d="" fill="#324760" transform="translate(0,0)"/>
<path d="" fill="#45945A" transform="translate(0,0)"/>
<path d="" fill="#2D495F" transform="translate(0,0)"/>
<path d="" fill="#2F4962" transform="translate(0,0)"/>
<path d="" fill="#2D445D" transform="translate(0,0)"/>
<path d="" fill="#314A61" transform="translate(0,0)"/>
<path d="" fill="#395366" transform="translate(0,0)"/>
<path d="" fill="#374E60" transform="translate(0,0)"/>
<path d="" fill="#2F455B" transform="translate(0,0)"/>
<path d="" fill="#2F4863" transform="translate(0,0)"/>
<path d="" fill="#2E445D" transform="translate(0,0)"/>
<path d="" fill="#469458" transform="translate(0,0)"/>
<path d="" fill="#30465E" transform="translate(0,0)"/>
<path d="" fill="#459D53" transform="translate(0,0)"/>
<path d="" fill="#324761" transform="translate(0,0)"/>
<path d="" fill="#429C52" transform="translate(0,0)"/>
<path d="" fill="#469D52" transform="translate(0,0)"/>
<path d="" fill="#44955B" transform="translate(0,0)"/>
<path d="" fill="#459456" transform="translate(0,0)"/>
<path d="" fill="#2F435A" transform="translate(0,0)"/>
<path d="" fill="#449853" transform="translate(0,0)"/>
<path d="" fill="#469359" transform="translate(0,0)"/>
<path d="" fill="#47A155" transform="translate(0,0)"/>
<path d="" fill="#354D66" transform="translate(0,0)"/>
<path d="" fill="#468F5D" transform="translate(0,0)"/>
<path d="" fill="#47925B" transform="translate(0,0)"/>
<path d="" fill="#459A53" transform="translate(0,0)"/>
<path d="" fill="#479B55" transform="translate(0,0)"/>
<path d="" fill="#459A53" transform="translate(0,0)"/>
<path d="" fill="#374B63" transform="translate(0,0)"/>
<path d="" fill="#4E8F5E" transform="translate(0,0)"/>
<path d="" fill="#334960" transform="translate(0,0)"/>
<path d="" fill="#344C62" transform="translate(0,0)"/>
<path d="" fill="#656565" transform="translate(0,0)"/>
</svg>
